<svg width="15" height="24" viewBox="0 0 15 24" fill="none" xmlns="http://www.w3.org/2000/svg">
<path fill-rule="evenodd" clip-rule="evenodd" d="M0.55224 12.9754L13.8096 23.559C14.1147 23.8025 14.5048 23.658 14.6809 23.2361C14.8571 22.8143 14.7525 22.2749 14.4475 22.0314L1.19009 11.4478C0.885009 11.2043 0.494909 11.3488 0.318772 11.7706C0.142636 12.1925 0.247163 12.7319 0.55224 12.9754Z" fill="#848484"/>
<path fill-rule="evenodd" clip-rule="evenodd" d="M1.19024 12.5522L14.4476 1.96865C14.7527 1.72511 14.8572 1.18571 14.6811 0.76387C14.5049 0.342034 14.1148 0.197502 13.8098 0.441049L0.55239 11.0246C0.247314 11.2681 0.142787 11.8075 0.318923 12.2294C0.495059 12.6512 0.885159 12.7957 1.19024 12.5522Z" fill="#848484"/>
</svg>
