<svg id="Layer_1" data-name="Layer 1" xmlns="http://www.w3.org/2000/svg" viewBox="0 0 77.23 62.17"><defs><style>.cls-1{fill:#fff;}.cls-1,.cls-2{stroke:#231f20;stroke-linecap:round;stroke-miterlimit:10;stroke-width:2px;}.cls-2{fill:none;}</style></defs><title>BoldlyIconography</title><path class="cls-1" d="M54.49,18.38V5.53A3.38,3.38,0,0,0,51.1,2.15H23.62a3.38,3.38,0,0,0-3.38,3.38V55.79a3.38,3.38,0,0,0,3.38,3.39H51.1a3.39,3.39,0,0,0,3.39-3.39V37.11"/><line class="cls-1" x1="23.62" y1="7.74" x2="51.02" y2="7.74"/><line class="cls-1" x1="51.02" y1="49.65" x2="23.62" y2="49.65"/><path class="cls-2" d="M41.16,33.07l-6.52.13a5.22,5.22,0,0,1-5.28-5.29h0a5.22,5.22,0,0,1,5.08-5.49L41,22.29Z"/><path class="cls-2" d="M39.62,33.3l-.07,7.78a.85.85,0,0,1-.83.87l-2,0a.84.84,0,0,1-.86-.84l-.15-7.77"/><line class="cls-2" x1="40.95" y1="22.29" x2="58.66" y2="17.17"/><line class="cls-2" x1="59.1" y1="37.97" x2="41.16" y2="33.07"/><rect class="cls-2" x="59.38" y="14.46" width="3.08" height="25.56" rx="0.91" transform="translate(122.34 53.33) rotate(178.92)"/><line class="cls-2" x1="66.24" y1="20.29" x2="71.13" y2="16.79"/><line class="cls-2" x1="67.72" y1="27.03" x2="73.79" y2="26.91"/><line class="cls-2" x1="66.39" y1="34.5" x2="71.4" y2="37.81"/><circle class="cls-2" cx="37.36" cy="54.96" r="1.79"/></svg>