<?xml version="1.0" encoding="utf-8"?>
<!-- Generator: Adobe Illustrator 24.0.2, SVG Export Plug-In . SVG Version: 6.00 Build 0)  -->
<svg version="1.1" id="Layer_1" xmlns="http://www.w3.org/2000/svg" xmlns:xlink="http://www.w3.org/1999/xlink" x="0px" y="0px"
	 viewBox="0 0 70.2 63.6" style="enable-background:new 0 0 70.2 63.6;" xml:space="preserve">
<style type="text/css">
	.st0{fill:none;stroke-width:2;stroke-linecap:round;stroke-miterlimit:10;}
</style>
<title>SurveyIcons</title>
<path class="st0" d="M2.8,35.2h7.5c1,0,1.9,0.8,1.9,1.8v22.9c0,1-0.8,1.8-1.9,1.8H2.8c-1,0-1.8-0.8-1.8-1.8V37
	C1,36,1.8,35.2,2.8,35.2z"/>
<path class="st0" d="M12.7,56.4l7.4-5h25.4c1.9,0,3.8-0.7,5.2-1.9l18.2-18.2c0.2-0.2,0.3-0.5,0.2-0.8c-0.1-0.8-0.7-1.4-1.4-1.7
	c-2.3-0.9-5-0.5-7,0.9L49,39.8H34.3"/>
<path class="st0" d="M12.6,39.3l7.1-5.8c1.2-0.7,2.6-1,4-1h20.9c1.3,0,2.3,1,2.3,2.3c0,0,0,0,0,0v2.5c-0.1,1.1-0.7,2-1.7,2.4"/>
<path class="st0" d="M46.6,16.9l-7.8,7.5c-0.8,0.8-2.2,0.8-3-0.1l-10.5-11c-0.4-0.4-0.6-1-0.6-1.5l0.1-6.5c0-1.3,1.1-2.4,2.4-2.5
	l7.3-0.4c0.6,0,1.2,0.2,1.6,0.7l10.5,10.9C47.4,14.7,47.4,16.1,46.6,16.9C46.6,16.9,46.6,16.9,46.6,16.9z"/>
<circle class="st0" cx="29.9" cy="7.7" r="1.8"/>
</svg>
