<svg id="Layer_1" data-name="Layer 1" xmlns="http://www.w3.org/2000/svg" viewBox="0 0 68.23 63.55"><defs><style>.cls-1{fill:none;stroke-linecap:round;stroke-miterlimit:10;stroke-width:2px;}</style></defs><title>SurveyIcons</title><path class="cls-1" d="M61.68,25.38V60.52a2,2,0,0,1-2,2H8.26a2,2,0,0,1-2-2V24.78"/><path class="cls-1" d="M66.11,14.91H1.8L9.22,2.52A3.19,3.19,0,0,1,12,1H54.34a3.22,3.22,0,0,1,2.6,1.3Z"/><rect class="cls-1" x="35.32" y="32.02" width="18.92" height="15.95"/><polyline class="cls-1" points="13.67 62.27 13.67 32.04 29.62 32.04 29.62 62.27"/><line class="cls-1" x1="18.94" y1="1.2" x2="13.73" y2="14.71"/><line class="cls-1" x1="48.76" y1="1.2" x2="53.97" y2="14.71"/><line class="cls-1" x1="38.47" y1="1.2" x2="40.71" y2="14.71"/><line class="cls-1" x1="29.23" y1="1.2" x2="26.99" y2="14.71"/><path class="cls-1" d="M14.18,16.29c0,.1,0,3.61,0,3.71-.22,2.42-3.08,4.35-6.58,4.35s-6.42-2-6.58-4.43c0-.08,0-3.56,0-3.63"/><path class="cls-1" d="M27.34,16.29c0,.16,0,3.72,0,3.88-.34,2.34-3.14,4.18-6.56,4.18s-6.23-1.85-6.56-4.2c0-.15,0-3.71,0-3.86"/><path class="cls-1" d="M40.49,16.29c0,.11,0,3.62,0,3.73-.23,2.42-3.09,4.33-6.57,4.33S27.56,22.44,27.33,20c0-.11,0-3.62,0-3.73"/><path class="cls-1" d="M54,16.32c0,.16,0,3.72,0,3.88-.33,2.34-3.35,4.15-6.76,4.15s-6.44-2-6.58-4.47c0-.06,0-3.53,0-3.59"/><path class="cls-1" d="M67.23,16.29c0,.16,0,3.73,0,3.89-.34,2.34-3.14,4.17-6.55,4.17s-6.23-1.84-6.56-4.19c0-.15,0-3.71,0-3.87"/><line class="cls-1" x1="47.27" y1="36.38" x2="50.33" y2="39.09"/><line class="cls-1" x1="43" y1="38.36" x2="47.81" y2="42.69"/></svg>