<svg id="Layer_1" data-name="Layer 1" xmlns="http://www.w3.org/2000/svg" viewBox="0 0 19.59 12.74"><defs><style>.cls-1{fill:none;stroke:#231f20;stroke-linecap:round;stroke-linejoin:round;}</style></defs><title>BoldlyIconography</title><path class="cls-1" d="M5.44,8.51l-2.73.05A2.17,2.17,0,0,1,.5,6.35h0a2.19,2.19,0,0,1,2.12-2.3L5.35,4Z"/><path class="cls-1" d="M4.79,8.61l0,3.25a.36.36,0,0,1-.35.37H3.56a.35.35,0,0,1-.36-.35L3.14,8.64"/><line class="cls-1" x1="5.35" y1="4" x2="12.27" y2="1.86"/><line class="cls-1" x1="12.45" y1="10.56" x2="5.44" y2="8.51"/><path class="cls-1" d="M13.58,11.64h0a.91.91,0,0,0,.9-.93L14.23,1.4A.92.92,0,0,0,13.3.5h0a.92.92,0,0,0-.9.93l.25,9.32A.91.91,0,0,0,13.58,11.64Z"/><line class="cls-1" x1="15.93" y1="3.16" x2="17.98" y2="1.69"/><line class="cls-1" x1="16.55" y1="5.98" x2="19.09" y2="5.93"/><line class="cls-1" x1="15.99" y1="9.11" x2="18.09" y2="10.49"/></svg>