<svg id="Layer_1" data-name="Layer 1" xmlns="http://www.w3.org/2000/svg" viewBox="0 0 81.93 52.6"><defs><style>.cls-1{fill:#9e5dae;}.cls-2{fill:#bd90c8;}.cls-3{fill:#9a2db3;}.cls-4{fill:#b35ec5;}.cls-5{fill:none;stroke:#000;stroke-linecap:round;stroke-miterlimit:10;stroke-width:2px;}</style></defs><title>ValueIconography</title><path class="cls-1" d="M13,21.27C5.59,24.73.41,32.84.41,42.29l17,.09h6.05l17-.1c0-9.44-5.18-17.55-12.57-21l-7.25-2.73Z"/><ellipse class="cls-2" cx="20.99" cy="11.79" rx="7.81" ry="8.66"/><path class="cls-1" d="M67.84,19.85c7.38,3.46,12.57,11.57,12.57,21l-17,.1h-6l-17-.09c0-9.45,5.18-17.55,12.57-21l7.25-2.72Z"/><path class="cls-3" d="M49.83,29.55C57.21,33,61.76,42,61.76,51.46L26,51.6l-5.39-.14c0-9,4.7-16.79,11.54-20.5l9.43-4.05Z"/><ellipse class="cls-2" cx="59.83" cy="10.37" rx="7.81" ry="8.66"/><ellipse class="cls-4" cx="41.18" cy="20.96" rx="7.81" ry="8.66"/><ellipse class="cls-5" cx="41.18" cy="20.96" rx="7.81" ry="8.66"/><path class="cls-5" d="M49.19,30.44c7.39,3.46,12.57,11.57,12.57,21L26,51.6"/><path class="cls-5" d="M20.61,51.46c0-9,4.7-16.79,11.54-20.5"/><ellipse class="cls-5" cx="21.05" cy="11.75" rx="7.81" ry="8.66"/><path class="cls-5" d="M19.07,42.25H.47c0-9,4.71-16.78,11.54-20.49"/><ellipse class="cls-5" cx="59.83" cy="10.37" rx="7.81" ry="8.66"/><path class="cls-5" d="M67.84,19.85c7.38,3.46,12.57,11.57,12.57,21l-17,.1"/></svg>