<?xml version="1.0" encoding="utf-8"?>
<!-- Generator: Adobe Illustrator 24.0.2, SVG Export Plug-In . SVG Version: 6.00 Build 0)  -->
<svg version="1.1" id="Layer_1" xmlns="http://www.w3.org/2000/svg" xmlns:xlink="http://www.w3.org/1999/xlink" x="0px" y="0px"
	 viewBox="0 0 77.2 62.2" style="enable-background:new 0 0 77.2 62.2;" xml:space="preserve">
<style type="text/css">
	.st0{fill:none;stroke-width:2;stroke-linecap:round;stroke-miterlimit:10;}
</style>
<title>BoldlyIconography</title>
<path class="st0" d="M54.5,18.4V5.5c0-1.9-1.5-3.4-3.4-3.4c0,0,0,0,0,0H23.6c-1.9,0-3.4,1.5-3.4,3.4v50.3c0,1.9,1.5,3.4,3.4,3.4
	c0,0,0,0,0,0h27.5c1.9,0,3.4-1.5,3.4-3.4V37.1"/>
<line class="st0" x1="23.6" y1="7.7" x2="51" y2="7.7"/>
<line class="st0" x1="51" y1="49.7" x2="23.6" y2="49.7"/>
<path class="st0" d="M41.2,33.1l-6.5,0.1c-2.9,0-5.2-2.3-5.3-5.2c0,0,0-0.1,0-0.1l0,0c-0.2-2.9,2.1-5.3,4.9-5.5c0,0,0.1,0,0.1,0
	l6.6-0.1L41.2,33.1z"/>
<path class="st0" d="M39.6,33.3l-0.1,7.8c0,0.5-0.4,0.9-0.8,0.9c0,0,0,0,0,0h-2c-0.5,0-0.8-0.4-0.9-0.8c0,0,0,0,0,0l-0.2-7.8"/>
<line class="st0" x1="41" y1="22.3" x2="58.7" y2="17.2"/>
<line class="st0" x1="59.1" y1="38" x2="41.2" y2="33.1"/>
<path class="st0" d="M61.8,40l-1.3,0c-0.5,0-0.9-0.4-0.9-0.9l-0.4-23.7c0-0.5,0.4-0.9,0.9-0.9l1.3,0c0.5,0,0.9,0.4,0.9,0.9l0.4,23.7
	C62.7,39.6,62.3,40,61.8,40z"/>
<line class="st0" x1="66.2" y1="20.3" x2="71.1" y2="16.8"/>
<line class="st0" x1="67.7" y1="27" x2="73.8" y2="26.9"/>
<line class="st0" x1="66.4" y1="34.5" x2="71.4" y2="37.8"/>
<circle class="st0" cx="37.4" cy="55" r="1.8"/>
</svg>
