<svg id="Layer_1" data-name="Layer 1" xmlns="http://www.w3.org/2000/svg" viewBox="0 0 11.48 14.4"><defs><style>.cls-1,.cls-2{fill:none;stroke:#231f20;}.cls-1{stroke-linejoin:round;}.cls-2{stroke-linecap:round;stroke-miterlimit:10;}</style></defs><title>BoldlyIconography</title><path class="cls-1" d="M8,13.9H3.5a1.78,1.78,0,0,1-1.78-1.63L.89,3.69a.39.39,0,0,1,.37-.41h9a.37.37,0,0,1,.37.41L9.8,12.27A1.77,1.77,0,0,1,8,13.9Z"/><path class="cls-2" d="M1.16,3.36A.72.72,0,0,1,.5,2.61h0A.7.7,0,0,1,1.25,2h9a.71.71,0,0,1,.75.65h0a.64.64,0,0,1-.66.67"/><path class="cls-2" d="M4.33,1.75V1.19A.69.69,0,0,1,5,.5H6.46a.69.69,0,0,1,.69.69v.56"/><line class="cls-2" x1="3.88" y1="6.23" x2="3.88" y2="10.96"/><line class="cls-2" x1="5.76" y1="6.23" x2="5.76" y2="10.96"/><line class="cls-2" x1="7.64" y1="6.23" x2="7.64" y2="10.96"/></svg>