<?xml version="1.0" encoding="utf-8"?>
<!-- Generator: Adobe Illustrator 24.0.1, SVG Export Plug-In . SVG Version: 6.00 Build 0)  -->
<svg version="1.1" id="Layer_1" xmlns="http://www.w3.org/2000/svg" xmlns:xlink="http://www.w3.org/1999/xlink" x="0px" y="0px"
	 viewBox="0 0 51.2 49.8" style="enable-background:new 0 0 51.2 49.8;" xml:space="preserve">
<style type="text/css">
	.st0{fill:#97CBE0;}
	.st1{fill:#68971F;}
	.st2{fill:none;stroke:#000000;stroke-width:2;stroke-linecap:round;stroke-linejoin:round;}
	.st3{fill:none;stroke:#010101;stroke-width:2;stroke-linecap:round;stroke-linejoin:round;}
</style>
<title>ValueIconography</title>
<circle class="st0" cx="26.3" cy="32" r="16.8"/>
<path class="st1" d="M23.9,15.4c0.8-0.1-2.4,2.4-3.9,3s-1.8,3-3.2,3.9s-0.9,1.9,0.2,2.7s1.8-1.1,3.5,0.5s3.4,0,5.2,1.2
	s2.4,4.9-1.4,7s-2.7,7.9-2.6,8.4s0.5,2.8-1.8,1.2s-2.5-4.5-2.7-6.4s0.2-1.8-2-3.2s-0.8-4.3-0.8-4.3s1.1-1.1,0.8-2.2
	s-4.3-1.2-4.3-1.2S14.2,16.2,23.9,15.4z"/>
<path class="st1" d="M31.4,16.2c0,0-2.1,2.4,0.3,3.7s1.9-1.5,3.3-0.6s-3.6,3.9-2.1,6.9s3,3,4.4,3.2s2.8,2.9,2.1,7.3s-1,3.8,0.1,5.5
	C39.4,42.2,51.2,24.6,31.4,16.2"/>
<path class="st1" d="M29.3,44.5c-1.4,0.3-4.3,2.2-5,1.8c-0.7-0.3-1.5-0.1-2,0.5c-0.3,0.4-0.7,0.7-1.2,0.9c0,0,7.7,3.4,14.5-1.5
	C34.6,44.1,30.7,44.2,29.3,44.5z"/>
<g>
	<polyline class="st2" points="23.4,11.9 25.8,7 28.3,12 	"/>
	<line class="st2" x1="25.8" y1="7" x2="25.8" y2="5.1"/>
	<circle cx="25.7" cy="2.2" r="1.2"/>
	<polyline class="st2" points="21.7,3.5 25.6,5.3 29.9,3.7 	"/>
	<polyline class="st2" points="15.5,15 15.8,9.6 20.1,13.1 	"/>
	<line class="st2" x1="15.3" y1="9.6" x2="14.4" y2="7.9"/>
	<circle cx="13.7" cy="5.2" r="1.2"/>
	<polyline class="st2" points="10.6,8.1 14.9,8.1 18.1,4.9 	"/>
	<polyline class="st2" points="39.5,17.2 44.8,16.2 42.4,21.2 	"/>
	<line class="st2" x1="44.8" y1="16.2" x2="46.3" y2="15"/>
	<circle cx="48.5" cy="13.1" r="1.2"/>
	<polyline class="st2" points="45,10.8 46,14.9 49.9,17.4 	"/>
	<polyline class="st2" points="32.4,13.3 36.6,9.8 36.9,15.4 	"/>
	<line class="st2" x1="36.6" y1="9.8" x2="37.3" y2="8"/>
	<circle cx="38.3" cy="5.3" r="1.2"/>
	<polyline class="st2" points="34.1,5 37,8.1 41.6,8.3 	"/>
	<polyline class="st2" points="12.9,17.3 7.6,16.2 9.9,21.3 	"/>
	<line class="st2" x1="7.6" y1="16.2" x2="6.1" y2="15"/>
	<circle cx="3.8" cy="13.1" r="1.2"/>
	<polyline class="st2" points="7.3,10.8 6.3,15 2.5,17.4 	"/>
</g>
<path class="st3" d="M10.9,25.8c0,0,4,0.1,4.3,1.2s-0.8,2.2-0.8,2.2s-1.4,2.9,0.8,4.3s1.7,1.4,2,3.2s0.5,4.8,2.7,6.4s2-0.7,1.8-1.2
	s-1.2-6.4,2.6-8.4s3.2-5.8,1.4-7s-3.4,0.4-5.2-1.2s-2.4,0.3-3.5-0.5s-1.6-1.8-0.2-2.7s1.8-3.3,3.2-3.9s3-3,3.9-3"/>
<path class="st3" d="M31.4,16.1c0,0-2.1,2.4,0.3,3.7s1.9-1.5,3.2-0.6s-3.6,3.9-2.1,6.9s3,3,4.4,3.2s2.9,2.9,2.1,7.3s-1,3.8,0.1,5.5"
	/>
<path class="st3" d="M21.1,47.5c0.4-0.2,0.8-0.5,1.2-0.9c0.5-0.6,1.3-0.8,2-0.5c0.7,0.4,3.6-1.5,5-1.8s5.3-0.3,6.4,1.6"/>
<circle class="st3" cx="26.3" cy="31.9" r="16.8"/>
</svg>
