<svg id="Layer_1" data-name="Layer 1" xmlns="http://www.w3.org/2000/svg" viewBox="0 0 51.8 50.37"><defs><style>.cls-1,.cls-2{fill:none;stroke-linecap:round;stroke-linejoin:round;stroke-width:2px;}.cls-1{stroke:#010101;}.cls-2{stroke:#000;}</style></defs><title>ValueIconography</title><path class="cls-1" d="M11,26.4s3.95.15,4.33,1.22-.76,2.2-.76,2.2-1.44,2.89.76,4.33,1.75,1.37,2,3.19.45,4.79,2.73,6.38,2-.68,1.83-1.21-1.22-6.38,2.58-8.44,3.19-5.77,1.37-7-3.42.38-5.17-1.21-2.36.3-3.5-.46-1.59-1.82-.22-2.66,1.74-3.34,3.19-3.87,3-3,3.87-3"/><path class="cls-1" d="M31.48,16.68s-2.07,2.36.3,3.69,1.92-1.48,3.25-.59-3.62,3.91-2.15,6.86,3,3,4.36,3.18,2.88,3,2.14,7.31-1,3.76.08,5.54"/><path class="cls-1" d="M21.17,48.15a4.09,4.09,0,0,0,1.17-.91,1.75,1.75,0,0,1,2-.48c.69.39,3.59-1.51,5-1.77s5.32-.35,6.35,1.6"/><circle class="cls-1" cx="26.36" cy="32.52" r="16.84"/><polyline class="cls-2" points="23.44 11.43 25.77 6.54 28.41 11.45"/><line class="cls-2" x1="25.77" y1="6.54" x2="25.67" y2="4.63"/><circle cx="25.51" cy="1.71" r="1.2"/><polyline class="cls-2" points="21.54 3.16 25.49 4.81 29.75 3.14"/><polyline class="cls-2" points="15.19 14.84 15.3 9.42 19.73 12.82"/><line class="cls-2" x1="15.3" y1="9.42" x2="14.43" y2="7.72"/><circle cx="13.08" cy="5.12" r="1.2"/><polyline class="cls-2" points="10.06 8.07 14.34 7.96 17.53 4.69"/><polyline class="cls-2" points="39.91 16.29 45.08 14.65 43.28 19.93"/><line class="cls-2" x1="45.08" y1="14.65" x2="46.41" y2="13.28"/><circle cx="48.43" cy="11.17" r="1.2"/><polyline class="cls-2" points="44.66 9.25 46.14 13.27 50.28 15.24"/><polyline class="cls-2" points="32.56 12.65 36.59 9.03 37.13 14.59"/><line class="cls-2" x1="36.59" y1="9.03" x2="37.24" y2="7.24"/><circle cx="38.22" cy="4.48" r="1.2"/><polyline class="cls-2" points="34 4.28 37 7.34 41.58 7.44"/><polyline class="cls-2" points="9.12 21.73 6.19 17.16 11.76 17.52"/><line class="cls-2" x1="6.19" y1="17.16" x2="4.52" y2="16.23"/><circle cx="1.95" cy="14.83" r="1.2"/><polyline class="cls-2" points="1.08 18.96 4.58 16.49 5.41 11.99"/></svg>