<svg id="Layer_1" data-name="Layer 1" xmlns="http://www.w3.org/2000/svg" viewBox="0 0 15.84 15.84"><defs><style>.cls-1{fill:#fff;}.cls-1,.cls-2,.cls-3{stroke:#231f20;}.cls-1,.cls-2{stroke-linejoin:round;}.cls-2,.cls-3{fill:none;stroke-linecap:round;}.cls-3{stroke-miterlimit:10;}</style></defs><title>BoldlyIconography</title><path class="cls-1" d="M8,.74,3.2.69A1.78,1.78,0,0,0,1.42,2.47V13.39A1.79,1.79,0,0,0,3.2,15.18l9.62.05a1.79,1.79,0,0,0,1.79-1.78V7.33a1.82,1.82,0,0,0-.52-1.27l-4.8-4.8A1.82,1.82,0,0,0,8,.74Z"/><path class="cls-2" d="M8.53,2.25l0,3.4a1,1,0,0,0,1,1l3.42,0"/><line class="cls-3" x1="7.04" y1="5.73" x2="4.39" y2="5.75"/><line class="cls-3" x1="11.66" y1="8.62" x2="4.39" y2="8.61"/><line class="cls-3" x1="11.66" y1="11.48" x2="4.39" y2="11.47"/></svg>