<svg width="24" height="24" viewBox="0 0 24 24" fill="none" xmlns="http://www.w3.org/2000/svg">
<path d="M22.7377 4.15217L20.0129 1.52099C19.897 1.40557 19.7591 1.31396 19.6072 1.25144C19.4553 1.18892 19.2923 1.15674 19.1277 1.15674C18.9632 1.15674 18.8002 1.18892 18.6483 1.25144C18.4964 1.31396 18.3585 1.40557 18.2426 1.52099L2.40163 17.1408C2.20049 17.3521 2.0528 17.6075 1.97058 17.886L0.846783 22.4487C0.820711 22.5429 0.820602 22.6423 0.846469 22.7365C0.872336 22.8307 0.923237 22.9164 0.993898 22.9847C1.06456 23.0529 1.15241 23.1013 1.24835 23.1247C1.34429 23.1482 1.44482 23.1458 1.53953 23.1179L6.15788 21.9925C6.44147 21.9234 6.70164 21.7818 6.91221 21.5818L22.7377 5.91643C22.855 5.80061 22.9481 5.66309 23.0116 5.51173C23.0751 5.36037 23.1077 5.19814 23.1077 5.0343C23.1077 4.87046 23.0751 4.70822 23.0116 4.55686C22.9481 4.4055 22.855 4.26799 22.7377 4.15217V4.15217Z" stroke="#848484" stroke-miterlimit="10" stroke-linecap="round"/>
<path d="M6.75822 21.1709L2.70947 17.1709" stroke="#848484" stroke-miterlimit="10" stroke-linecap="round"/>
<path d="M20.598 7.80233L16.3184 3.52856" stroke="#848484" stroke-miterlimit="10" stroke-linecap="round"/>
<path d="M7.08154 16.0607L14.7018 8.53223" stroke="#848484" stroke-miterlimit="10" stroke-linecap="round"/>
</svg>
