<svg id="Layer_1" data-name="Layer 1" xmlns="http://www.w3.org/2000/svg" viewBox="0 0 65.91 50.39"><defs><style>.cls-1{fill:#695eae;}.cls-2{fill:none;stroke-miterlimit:10;}.cls-2,.cls-3,.cls-4{stroke:#000;stroke-width:2px;}.cls-2,.cls-3{stroke-linecap:round;}.cls-3{fill:#3f3093;}.cls-3,.cls-4{stroke-linejoin:round;}.cls-4{fill:#d1cdef;}</style></defs><title>ValueIconography</title><path class="cls-1" d="M9.85,21.35V38.67c0,5.48,9.88,9.93,22.07,9.93S54,44.15,54,38.67c0-.15,0-16.33,0-16.33"/><path class="cls-2" d="M10,27.39V38.7c0,5.49,9.88,9.93,22.07,9.93s22.06-4.44,22.06-9.93c0-.14,0-10.32,0-10.32"/><path class="cls-3" d="M62.88,18.78,33.06,33.31a1.38,1.38,0,0,1-1.22,0L2,18.78a1.39,1.39,0,0,1,0-2.5L31.84,1.75a1.38,1.38,0,0,1,1.22,0L62.88,16.28A1.39,1.39,0,0,1,62.88,18.78Z"/><line class="cls-2" x1="61.33" y1="20.04" x2="61.33" y2="36.7"/><path class="cls-4" d="M64.08,44.48c0-5.79-2.65-7.73-2.65-7.73s-2.65,1.93-2.65,7.73Z"/></svg>