<svg id="Layer_1" data-name="Layer 1" xmlns="http://www.w3.org/2000/svg" viewBox="0 0 65.52 50.52"><defs><style>.cls-1,.cls-2{fill:none;stroke-linecap:round;}.cls-1{stroke-miterlimit:10;}.cls-2{stroke-linejoin:round;}</style></defs><title>ValueIconography</title><path class="cls-1" d="M9.88,27.59V38.91c0,5.48,9.88,9.93,22.06,9.93S54,44.39,54,38.91c0-.14,0-10.33,0-10.33"/><path class="cls-1" d="M62.8,19,33,33.51a1.38,1.38,0,0,1-1.22,0L1.93,19a1.4,1.4,0,0,1,0-2.51L31.76,2A1.38,1.38,0,0,1,33,2L62.8,16.48A1.4,1.4,0,0,1,62.8,19Z"/><line class="cls-1" x1="61.25" y1="20.25" x2="61.25" y2="36.9"/><path class="cls-2" d="M64,44.68C64,38.89,61.35,37,61.35,37s-2.65,1.93-2.65,7.73Z"/></svg>