<?xml version="1.0" encoding="utf-8"?>
<!-- Generator: Adobe Illustrator 24.0.1, SVG Export Plug-In . SVG Version: 6.00 Build 0)  -->
<svg version="1.1" id="Layer_1" xmlns="http://www.w3.org/2000/svg" xmlns:xlink="http://www.w3.org/1999/xlink" x="0px" y="0px"
	 viewBox="0 0 61 54.6" style="enable-background:new 0 0 61 54.6;" xml:space="preserve">
<style type="text/css">
	.st0{fill:#F5C09C;}
	.st1{fill:#BA1B65;}
	.st2{fill:#CB4F8A;}
	.st3{fill:#DC86AE;}
	.st4{fill:none;stroke:#000000;stroke-width:2;stroke-linecap:round;stroke-miterlimit:10;}
	.st5{fill:none;stroke:#000000;stroke-width:2;stroke-linecap:round;stroke-linejoin:round;}
</style>
<title>ValueIconography</title>
<path class="st0" d="M30,2.1L20.8,10c-0.5,0.5-1.4,0.4-1.9-0.1c-0.2-0.2-0.3-0.5-0.3-0.7V6.3c0-0.7-0.6-1.2-1.3-1.2h-6.7
	c-0.7,0-1.3,0.5-1.3,1.2v13.1c0,0.3-0.2,0.6-0.4,0.8l-6.8,5.9c-0.5,0.4-0.5,1.2,0,1.6c0.2,0.3,0.6,0.4,0.9,0.4h4.4
	c0.7,0,1.3,0.5,1.3,1.2v23c0,0.7,0.6,1.2,1.3,1.2h42.2c0.7,0,1.3-0.5,1.3-1.2V29.3c0-0.7,0.6-1.2,1.3-1.2c0,0,0,0,0,0h3.8
	c0.6,0.1,1.2-0.4,1.3-1.1c0-0.4-0.1-0.7-0.4-0.9l-27.8-24C31.3,1.7,30.5,1.7,30,2.1z"/>
<path class="st1" d="M17.3,33.8c-3.7,2-4.7,6.3-4.7,11.2v7.3h36.2L48.7,45c0-4.9-0.9-9.2-4.7-11.2l0,0c-2.7-0.4-5.4-0.7-8.2-0.7
	c-2.1,0.1-4,1.4-4.9,3.4c-1.3-1.7-3.3-2.9-5.5-3.1c0,0-6-0.1-8.1,0.4L17.3,33.8z"/>
<path class="st2" d="M27.2,40.5c-2,1.2-3.5,3.2-4.1,5.5c-0.1,1.8,0,4.6,0.1,6.4h15.4c0,0-0.4-5.6-0.6-6.3c-0.8-2.3-2.3-4.4-4.4-5.8
	l-3.5-2.1L27.2,40.5z"/>
<ellipse class="st3" cx="22.2" cy="28.3" rx="4.3" ry="4.7"/>
<ellipse class="st3" cx="30.5" cy="36.1" rx="3" ry="3.3"/>
<ellipse class="st3" cx="38.5" cy="28.3" rx="4.3" ry="4.7"/>
<path class="st4" d="M33.8,40.9c2.1,1.4,3.8,3.6,4.6,6c0.2,0.7,0.4,1.5,0.4,2.3l0.1,1.7"/>
<path class="st4" d="M22.6,51.1v-1.8c0-0.8,0.1-1.7,0.3-2.5c0.6-2.4,2.1-4.5,4.2-5.7"/>
<ellipse class="st4" cx="21.9" cy="28.5" rx="4.5" ry="4.9"/>
<path class="st4" d="M16.7,34.2c-3.9,2.1-4.9,6.6-4.9,11.7v5.5"/>
<ellipse class="st4" cx="38.9" cy="28.5" rx="4.5" ry="4.9"/>
<path class="st4" d="M44.6,34.2c3.9,2.1,4.9,6.6,4.9,11.7l0.1,5.5"/>
<ellipse class="st4" cx="30.5" cy="36.5" rx="3.1" ry="3.5"/>
<path class="st5" d="M29.8,2l-9.1,7.9c-0.5,0.5-1.4,0.4-1.9-0.1c-0.2-0.2-0.3-0.5-0.3-0.8V6.2c0-0.7-0.6-1.2-1.3-1.2h-6.7
	C9.8,5,9.2,5.5,9.2,6.2v13.1c0,0.3-0.1,0.6-0.4,0.9L2,26c-0.5,0.4-0.5,1.2,0,1.6C2.2,27.9,2.5,28,2.9,28h4.4c0.7,0,1.3,0.5,1.3,1.2
	v22.9c0,0.7,0.6,1.2,1.3,1.2h42.2c0.7,0,1.3-0.5,1.3-1.2V29.2c0-0.7,0.6-1.2,1.3-1.2h3.8c0.6,0.1,1.2-0.4,1.3-1.1
	c0-0.4-0.1-0.7-0.4-0.9L31.6,2C31.1,1.6,30.3,1.6,29.8,2z"/>
</svg>
