<svg id="Layer_1" data-name="Layer 1" xmlns="http://www.w3.org/2000/svg" viewBox="0 0 61.17 53.6"><defs><style>.cls-1{fill:none;stroke-linecap:round;stroke-miterlimit:10;stroke-width:2px;}</style></defs><title>ValueIconography</title><ellipse class="cls-1" cx="30.65" cy="34.93" rx="2.69" ry="3.01"/><path class="cls-1" d="M33.6,38.81a10.23,10.23,0,0,1,4,5.22,6.77,6.77,0,0,1,.35,2l.05,1.5"/><path class="cls-1" d="M23.8,47.64l0-1.52A8.09,8.09,0,0,1,24,44a7.86,7.86,0,0,1,3.7-5"/><ellipse class="cls-1" cx="23.18" cy="27.92" rx="3.88" ry="4.3"/><path class="cls-1" d="M18.69,32.89c-3.39,1.85-4.24,5.71-4.24,10.19v4.75"/><ellipse class="cls-1" cx="37.98" cy="27.92" rx="3.88" ry="4.3"/><path class="cls-1" d="M43,32.89c3.4,1.85,4.24,5.71,4.24,10.19l.11,4.75"/><path class="cls-1" d="M29.59,1.33,20.44,9.21a1.32,1.32,0,0,1-2.2-.84V5.49a1.25,1.25,0,0,0-1.31-1.17H10.26A1.24,1.24,0,0,0,9,5.49V18.6a1.14,1.14,0,0,1-.4.85l-6.8,5.86a1.16,1.16,0,0,0,.9,2H7.11A1.25,1.25,0,0,1,8.42,28.5V51.43a1.24,1.24,0,0,0,1.3,1.17h42.2a1.24,1.24,0,0,0,1.3-1.17V28.5a1.24,1.24,0,0,1,1.3-1.17h3.82a1.16,1.16,0,0,0,.9-2L31.4,1.33A1.41,1.41,0,0,0,29.59,1.33Z"/></svg>