<svg width="10" height="16" viewBox="0 0 10 16" fill="none" xmlns="http://www.w3.org/2000/svg">
<path fill-rule="evenodd" clip-rule="evenodd" d="M9.63119 7.34777L0.792941 0.29207C0.589556 0.129705 0.329489 0.226059 0.212065 0.507283C0.0946404 0.788507 0.164325 1.14811 0.36771 1.31047L9.20596 8.36617C9.40934 8.52853 9.66941 8.43218 9.78683 8.15096C9.90426 7.86973 9.83457 7.51013 9.63119 7.34777Z" fill="#848484"/>
<path fill-rule="evenodd" clip-rule="evenodd" d="M9.20651 7.63105L0.368261 14.6868C0.164876 14.8491 0.0951912 15.2087 0.212615 15.4899C0.33004 15.7712 0.590107 15.8675 0.793491 15.7052L9.63174 8.64946C9.83512 8.48709 9.90481 8.12749 9.78738 7.84627C9.66996 7.56504 9.40989 7.46869 9.20651 7.63105Z" fill="#848484"/>
</svg>
