<svg width="25" height="25" viewBox="0 0 25 25" fill="none" xmlns="http://www.w3.org/2000/svg">
<path fill-rule="evenodd" clip-rule="evenodd" d="M0.961538 1.92308H24.0385C24.5695 1.92308 25 1.49258 25 0.961538C25 0.430495 24.5695 0 24.0385 0H0.961538C0.430495 0 0 0.430495 0 0.961538C0 1.49258 0.430495 1.92308 0.961538 1.92308Z" fill="#848484"/>
<path fill-rule="evenodd" clip-rule="evenodd" d="M0.961538 13.4617H24.0385C24.5695 13.4617 25 13.0312 25 12.5001C25 11.9691 24.5695 11.5386 24.0385 11.5386H0.961538C0.430495 11.5386 0 11.9691 0 12.5001C0 13.0312 0.430495 13.4617 0.961538 13.4617Z" fill="#848484"/>
<path fill-rule="evenodd" clip-rule="evenodd" d="M0.961538 25H24.0385C24.5695 25 25 24.5695 25 24.0384C25 23.5074 24.5695 23.0769 24.0385 23.0769H0.961538C0.430495 23.0769 0 23.5074 0 24.0384C0 24.5695 0.430495 25 0.961538 25Z" fill="#848484"/>
</svg>