<svg id="Layer_1" data-name="Layer 1" xmlns="http://www.w3.org/2000/svg" viewBox="0 0 16.84 11.29"><defs><style>.cls-1{fill:none;stroke:#231f20;stroke-linecap:round;stroke-miterlimit:10;}.cls-2{fill:#231f20;}</style></defs><title>BoldlyIconography</title><path class="cls-1" d="M14.35,3.41c.48.35.89.7,1.25,1a1.68,1.68,0,0,1,0,2.48c-1.48,1.33-4.15,3.25-7.19,3.25a8.38,8.38,0,0,1-3-.61"/><path class="cls-1" d="M2.26,7.75c-.37-.28-.7-.56-1-.82a1.7,1.7,0,0,1,0-2.54C2.75,3.06,5.4,1.17,8.41,1.17a8.21,8.21,0,0,1,2.9.55"/><path class="cls-1" d="M11.92,5.16A3.61,3.61,0,0,1,8.35,9.23a3.52,3.52,0,0,1-1.9-.55"/><path class="cls-1" d="M4.76,5.82c0-.06,0-.13,0-.19A3.6,3.6,0,0,1,8.35,2,3.7,3.7,0,0,1,10,2.44"/><line class="cls-1" x1="0.98" y1="10.5" x2="15.19" y2="0.89"/><path class="cls-2" d="M8.24,3.59a1.9,1.9,0,0,0-1.9,1.9s0,.1,0,.14L9.11,3.81A1.84,1.84,0,0,0,8.24,3.59Z"/><path class="cls-2" d="M7.48,7.23a1.76,1.76,0,0,0,.76.16,1.9,1.9,0,0,0,1.9-1.9v0Z"/></svg>