<svg id="Layer_1" data-name="Layer 1" xmlns="http://www.w3.org/2000/svg" viewBox="0 0 15.61 15.56"><defs><style>.cls-1{fill:#231f20;}</style></defs><title>BoldlyIconography</title><path class="cls-1" d="M7.81,1.22A6.56,6.56,0,1,1,1.25,7.78,6.57,6.57,0,0,1,7.81,1.22m0-1a7.56,7.56,0,1,0,7.56,7.56A7.55,7.55,0,0,0,7.81.22Z"/><path class="cls-1" d="M7.81,5.24a.9.9,0,1,0-.9-.9A.9.9,0,0,0,7.81,5.24Z"/><path class="cls-1" d="M8.1,12.31H7.51a.39.39,0,0,1-.38-.39V6.71a.38.38,0,0,1,.38-.39H8.1a.39.39,0,0,1,.39.38v5.21A.4.4,0,0,1,8.1,12.31Z"/></svg>