<svg id="Layer_1" data-name="Layer 1" xmlns="http://www.w3.org/2000/svg" viewBox="0 0 44.73 67.01"><defs><style>.cls-1,.cls-2{fill:none;stroke:#000;stroke-linejoin:round;stroke-width:2px;}.cls-2{stroke-linecap:round;}</style></defs><title>ValueIconography</title><path class="cls-1" d="M36.57,32.32A14.1,14.1,0,1,0,12.78,42.55c1.47,1.39,3.12,3.25,3.35,5.25l.53,4.42A1.31,1.31,0,0,0,18,53.38l9,0a1.31,1.31,0,0,0,1.31-1.16l.52-4.43c.24-2,1.95-3.91,3.43-5.33A14,14,0,0,0,36.57,32.32Z"/><rect class="cls-2" x="17.29" y="56.98" width="10.36" height="4.73" rx="0.88"/><line class="cls-2" x1="21.32" y1="65.36" x2="23.61" y2="65.36"/><line class="cls-2" x1="22.42" y1="12.97" x2="22.42" y2="1.54"/><line class="cls-2" x1="8.75" y1="18.46" x2="1.61" y2="11.32"/><line class="cls-2" x1="36.06" y1="18.46" x2="43.2" y2="11.32"/><polyline class="cls-2" points="20.86 50.18 19.67 43.07 25.52 43.07 24.34 50.18"/></svg>