<svg id="Layer_1" data-name="Layer 1" xmlns="http://www.w3.org/2000/svg" viewBox="0 0 44.12 66.52"><defs><style>.cls-1{fill:#c9e1ea;}.cls-2{fill:#9891c8;}.cls-3,.cls-4,.cls-5{fill:none;stroke:#000;stroke-width:2px;}.cls-3{stroke-linecap:round;}.cls-3,.cls-4{stroke-linejoin:round;}.cls-5{stroke-miterlimit:10;}</style></defs><title>ValueIconography</title><path class="cls-1" d="M36.14,32.48A14.1,14.1,0,1,0,12.35,42.72C13.81,44.1,15.46,46,15.7,48l.52,4.41a1.32,1.32,0,0,0,1.31,1.16l9,0a1.33,1.33,0,0,0,1.32-1.17L28.37,48c.24-2,1.94-3.91,3.42-5.33A14,14,0,0,0,36.14,32.48Z"/><rect class="cls-2" x="16.85" y="57.14" width="10.36" height="4.73" rx="0.88"/><line class="cls-3" x1="20.89" y1="65.52" x2="23.18" y2="65.52"/><line class="cls-3" x1="21.99" y1="13.14" x2="21.99" y2="1.7"/><line class="cls-3" x1="8.31" y1="18.62" x2="1.18" y2="11.48"/><line class="cls-3" x1="35.63" y1="18.62" x2="42.76" y2="11.48"/><polyline class="cls-3" points="20.42 50.34 19.24 43.23 25.09 43.23 23.91 50.34"/><path class="cls-4" d="M36,32.53A14.1,14.1,0,1,0,12.17,42.77C13.63,44.15,15.28,46,15.52,48L16,52.43a1.34,1.34,0,0,0,1.31,1.17l9,0a1.32,1.32,0,0,0,1.31-1.17L28.18,48c.24-2,1.95-3.91,3.43-5.33A14,14,0,0,0,36,32.53Z"/><rect class="cls-5" x="16.67" y="57.19" width="10.36" height="4.73" rx="0.88"/></svg>