<svg id="Layer_1" data-name="Layer 1" xmlns="http://www.w3.org/2000/svg" viewBox="0 0 15.59 15.78"><defs><style>.cls-1{fill:none;stroke:#231f20;stroke-linecap:round;stroke-miterlimit:10;}</style></defs><title>BoldlyIconography</title><path class="cls-1" d="M8.1,12.21l3.44,2.21a.6.6,0,0,0,.9-.65l-1-3.95a.58.58,0,0,1,.2-.61l3.16-2.6a.59.59,0,0,0-.34-1.05l-4.08-.23A.62.62,0,0,1,9.82,5L8.33,1.14a.59.59,0,0,0-1.1,0L5.74,5a.62.62,0,0,1-.52.38l-4.08.23A.59.59,0,0,0,.8,6.61L4,9.21a.58.58,0,0,1,.2.61l-1,3.95a.6.6,0,0,0,.9.65l3.44-2.21A.61.61,0,0,1,8.1,12.21Z"/></svg>