<svg id="Layer_1" data-name="Layer 1" xmlns="http://www.w3.org/2000/svg" viewBox="0 0 15.59 15.78"><defs><style>.cls-1{fill:#231f20;}</style></defs><title>BoldlyIconography</title><path class="cls-1" d="M8.06,12.46l3.44,2.2a.59.59,0,0,0,.9-.65l-1-3.95a.61.61,0,0,1,.2-.61l3.17-2.59a.6.6,0,0,0-.35-1.06L10.3,5.57a.61.61,0,0,1-.52-.38L8.3,1.38a.6.6,0,0,0-1.11,0L5.7,5.19a.59.59,0,0,1-.52.38L1.1,5.8A.6.6,0,0,0,.76,6.86L3.92,9.45a.59.59,0,0,1,.2.61L3.09,14a.59.59,0,0,0,.89.65l3.44-2.2A.57.57,0,0,1,8.06,12.46Z"/></svg>