<svg width="3825" height="1661" viewBox="0 0 3825 1661" fill="none" xmlns="http://www.w3.org/2000/svg">
<path fill-rule="evenodd" clip-rule="evenodd" d="M725.653 773.869C707.045 730.103 679.858 690.406 645.66 657.065C574.149 589.443 478.947 551.763 379.968 551.907C281.048 551.907 202.007 586.136 142.845 654.595V239.254C143 228.707 142.845 218.975 142.845 208.707V0.707031C104.634 7.41177 74.6366 23.2914 49.9958 48.3459C20.3554 78.6937 0 121.207 0 174.324V1264.37L142.488 1264.02V1180.74C201.054 1249.2 280.334 1283.43 379.611 1283.43C430.186 1283.83 480.332 1274.23 527.098 1255.2C571.54 1237.46 612.055 1211.33 646.374 1178.27C680.309 1145 707.252 1105.42 725.653 1061.82C764.941 969.761 764.941 865.927 725.653 773.869ZM545.669 1083.34C501.03 1127.81 445.32 1150.04 378.54 1150.04C311.76 1150.04 256.527 1127.57 212.84 1082.64C169.272 1037.82 147.845 982.773 147.845 918.196C147.845 852.913 170.105 797.864 214.625 753.048C258.907 708.232 314.26 685.648 379.969 685.648C445.677 685.648 501.03 708.232 545.669 753.401C590.308 798.57 612.449 853.266 612.449 918.549C612.449 983.832 590.308 1038.88 545.669 1083.34Z" fill="#F7F7F7"/>
<path fill-rule="evenodd" clip-rule="evenodd" d="M891.879 1106.04C825.961 992.989 825.691 853.519 891.17 740.212C957.976 627.001 1080.01 557.438 1211.94 557.366C1343.87 557.293 1465.98 626.722 1532.91 739.86C1599.49 852.804 1599.49 992.748 1532.91 1105.69C1466.16 1218.75 1344.27 1288.21 1212.5 1288.28C1080.73 1288.35 958.758 1219.03 891.879 1106.04ZM983.61 924.539C983.61 987.273 1005.8 1041.31 1050.19 1086.66C1094.58 1132.01 1148.77 1154.68 1212.75 1154.68C1276.5 1154.68 1330.57 1131.66 1374.96 1085.6C1419.35 1039.55 1441.42 984.923 1441.19 921.719C1441.19 858.632 1418.99 804.357 1374.6 758.892C1330.33 713.428 1276.15 690.872 1212.75 690.872C1148.29 690.872 1093.99 714.015 1049.84 760.302C1006.64 804.071 982.799 863.196 983.61 924.539Z" fill="#F7F7F7"/>
<path d="M3125.54 1149.38C3092 1149.38 3069.05 1140.91 3056.69 1124.33C3044.33 1107.75 3038.33 1079.88 3038.33 1041.08V174.278C3038.33 121.207 3016.79 78.673 2987.49 48.3333C2963.48 23.2854 2933.82 7.64892 2896.04 0.945969V211.207C2896.04 219.707 2896.04 228.96 2896.04 239.191V1105.99H2898.16C2901.33 1159.61 2917.58 1201.59 2946.88 1231.93C2979.72 1266.15 3025.27 1283.44 3083.17 1283.44C3109.4 1282.8 3135.47 1279.13 3160.85 1272.5V1148.32C3148.85 1149.03 3137.2 1149.38 3125.54 1149.38Z" fill="#F7F7F7"/>
<path fill-rule="evenodd" clip-rule="evenodd" d="M2629.79 48.6856C2596.56 82.9056 2579.76 131.59 2579.76 195.091V651.593C2519.72 585.27 2441.46 552.108 2345.69 552.108C2246.68 552.189 2151.5 589.827 2079.81 657.238C2045.51 690.509 2018.3 730.21 1999.76 774.009C1980.12 819.638 1970.03 868.719 1970.1 918.297C1969.77 967.638 1979.74 1016.52 1999.4 1061.88C2017.68 1105.54 2044.66 1145.13 2078.74 1178.3C2113.05 1211.39 2153.6 1237.52 2198.1 1255.21C2244.9 1274.23 2295.08 1283.83 2345.69 1283.43C2445.03 1283.43 2524.01 1249.21 2582.62 1180.77V1264.03H2725.21V0.707031C2686.26 7.05714 2654.45 22.9324 2629.79 48.6856ZM2512.93 1081.99C2468.26 1127.14 2412.51 1149.72 2345.68 1149.72C2279.93 1149.72 2224.65 1127.5 2179.86 1083.05C2135.08 1038.6 2112.8 983.561 2113.04 917.943C2113.04 853.031 2135.31 797.997 2179.86 752.84C2224.54 708.037 2279.57 685.459 2345.68 685.459C2411.79 685.459 2467.19 708.39 2512.21 753.546C2557.24 798.702 2579.76 853.737 2579.76 917.943C2579.76 982.15 2557.24 1036.83 2512.93 1081.99Z" fill="#F7F7F7"/>
<path d="M3824 728.002C3824 678.207 3802.06 641.797 3775.15 613.771C3751.08 588.584 3718.52 572.62 3680.64 565.88V728.356V939.789C3681.11 969.628 3678.74 999.444 3673.56 1028.83C3669.18 1052.1 3660.28 1074.28 3647.37 1094.11C3633.99 1113.94 3614.64 1128.98 3592.14 1137.03C3569.84 1145.9 3541.88 1150.51 3508.6 1150.87C3476.75 1150.16 3449.84 1145.55 3428.25 1137.03C3406.13 1128.82 3387.17 1113.79 3374.09 1094.11C3361.34 1074.23 3352.57 1052.06 3348.25 1028.83C3343.07 999.444 3340.7 969.628 3341.17 939.789V788.31C3341.17 783.698 3340.82 779.782 3341.17 775.525V557.707C3303.65 564.447 3273.56 580.07 3249.14 605.257C3220.46 635.056 3199.58 677.207 3199.58 728.002V980.231C3199.58 1180.67 3302.59 1282.24 3508.6 1284.96C3578.69 1284.25 3636.75 1272.19 3683.12 1249.13V1284.96C3683.12 1319.02 3682.06 1346.69 3680.29 1368.68C3678.31 1391.26 3674.16 1413.6 3667.9 1435.38C3661.53 1458.08 3652.68 1475.47 3640.64 1488.24C3626.83 1502.18 3609.99 1512.74 3591.44 1519.1C3570.55 1526.9 3545.06 1530.81 3514.98 1530.81H3505.42V1661H3513.56C3645.24 1661 3735.86 1614.88 3785.42 1522.65C3802.14 1491.19 3812.94 1456.92 3817.28 1421.54C3821.88 1385.36 3824 1336.4 3824 1275.38V728.002Z" fill="#F7F7F7"/>
<path d="M1855.55 1124.69C1867.99 1141.27 1891.09 1149.73 1924.86 1149.73C1936.59 1149.73 1948.32 1149.38 1960.4 1148.32V1272.5C1934.85 1279.13 1908.61 1282.8 1882.21 1283.44C1823.91 1283.44 1778.06 1266.15 1745 1231.93C1711.95 1197.71 1695.24 1148.68 1695.24 1085.53V214.143V205.676V0.707031C1733.63 7.40998 1763.84 23.2854 1788.37 48.6861C1821.42 82.9064 1838.13 131.944 1838.13 195.093V1066.48C1840.26 1092.23 1845.95 1111.63 1855.55 1124.69Z" fill="#F7F7F7"/>
</svg>