<svg width="3825" height="1661" viewBox="0 0 3825 1661" fill="none" xmlns="http://www.w3.org/2000/svg">
<path fill-rule="evenodd" clip-rule="evenodd" d="M725.653 773.162C707.045 729.396 679.858 689.699 645.66 656.358C574.149 588.736 478.947 551.056 379.968 551.2C281.048 551.2 202.007 585.429 142.845 653.888V238.547C143 228 142.845 218.268 142.845 208V0C104.634 6.70473 74.6366 22.5844 49.9958 47.6389C20.3554 77.9866 0 120.5 0 173.617V1263.67L142.488 1263.31V1180.03C201.054 1248.49 280.334 1282.72 379.611 1282.72C430.186 1283.12 480.332 1273.52 527.098 1254.49C571.54 1236.75 612.055 1210.62 646.374 1177.56C680.309 1144.29 707.252 1104.71 725.653 1061.11C764.941 969.054 764.941 865.22 725.653 773.162ZM545.669 1082.64C501.03 1127.1 445.32 1149.33 378.54 1149.33C311.76 1149.33 256.527 1126.86 212.84 1081.93C169.272 1037.12 147.845 982.066 147.845 917.489C147.845 852.206 170.105 797.157 214.625 752.341C258.907 707.525 314.26 684.941 379.969 684.941C445.677 684.941 501.03 707.525 545.669 752.694C590.308 797.863 612.449 852.559 612.449 917.842C612.449 983.125 590.308 1038.17 545.669 1082.64Z" fill="url(#paint0_linear)"/>
<path fill-rule="evenodd" clip-rule="evenodd" d="M891.879 1105.34C825.961 992.282 825.691 852.812 891.17 739.505C957.976 626.294 1080.01 556.731 1211.94 556.659C1343.87 556.586 1465.98 626.015 1532.91 739.153C1599.49 852.097 1599.49 992.041 1532.91 1104.98C1466.16 1218.04 1344.27 1287.5 1212.5 1287.57C1080.73 1287.65 958.758 1218.32 891.879 1105.34ZM983.61 923.831C983.61 986.566 1005.8 1040.61 1050.19 1085.95C1094.58 1131.3 1148.77 1153.97 1212.75 1153.97C1276.5 1153.97 1330.57 1130.95 1374.96 1084.9C1419.35 1038.84 1441.42 984.216 1441.19 921.012C1441.19 857.925 1418.99 803.65 1374.6 758.185C1330.33 712.721 1276.15 690.165 1212.75 690.165C1148.29 690.165 1093.99 713.308 1049.84 759.595C1006.64 803.364 982.799 862.489 983.61 923.831Z" fill="url(#paint1_linear)"/>
<path d="M3125.54 1148.67C3092 1148.67 3069.05 1140.21 3056.69 1123.63C3044.33 1107.05 3038.33 1079.18 3038.33 1040.37V173.571C3038.33 120.5 3016.79 77.9659 2987.49 47.6262C2963.48 22.5784 2933.82 6.94189 2896.04 0.238937V210.5C2896.04 219 2896.04 228.253 2896.04 238.484V1105.28H2898.16C2901.33 1158.91 2917.58 1200.89 2946.88 1231.23C2979.72 1265.45 3025.27 1282.73 3083.17 1282.73C3109.4 1282.09 3135.47 1278.42 3160.85 1271.8V1147.62C3148.85 1148.32 3137.2 1148.67 3125.54 1148.67Z" fill="url(#paint2_linear)"/>
<path fill-rule="evenodd" clip-rule="evenodd" d="M2629.79 47.9786C2596.56 82.1986 2579.76 130.883 2579.76 194.384V650.886C2519.72 584.563 2441.46 551.401 2345.69 551.401C2246.68 551.482 2151.5 589.12 2079.81 656.531C2045.51 689.802 2018.3 729.503 1999.76 773.302C1980.12 818.931 1970.03 868.012 1970.1 917.59C1969.77 966.931 1979.74 1015.81 1999.4 1061.17C2017.68 1104.83 2044.66 1144.42 2078.74 1177.59C2113.05 1210.68 2153.6 1236.81 2198.1 1254.5C2244.9 1273.53 2295.08 1283.12 2345.69 1282.72C2445.03 1282.72 2524.01 1248.5 2582.62 1180.06V1263.32H2725.21V0C2686.26 6.35011 2654.45 22.2254 2629.79 47.9786ZM2512.93 1081.28C2468.26 1126.44 2412.51 1149.02 2345.68 1149.02C2279.93 1149.02 2224.65 1126.79 2179.86 1082.34C2135.08 1037.89 2112.8 982.854 2113.04 917.236C2113.04 852.324 2135.31 797.29 2179.86 752.133C2224.54 707.33 2279.57 684.752 2345.68 684.752C2411.79 684.752 2467.19 707.683 2512.21 752.839C2557.24 797.995 2579.76 853.029 2579.76 917.236C2579.76 981.443 2557.24 1036.12 2512.93 1081.28Z" fill="url(#paint3_linear)"/>
<path d="M3824 727.294C3824 677.5 3802.06 641.09 3775.15 613.064C3751.08 587.877 3718.52 571.913 3680.64 565.173V727.649V939.082C3681.11 968.921 3678.74 998.737 3673.56 1028.12C3669.18 1051.39 3660.28 1073.57 3647.37 1093.4C3633.99 1113.23 3614.64 1128.27 3592.14 1136.32C3569.84 1145.19 3541.88 1149.8 3508.6 1150.16C3476.75 1149.45 3449.84 1144.84 3428.25 1136.32C3406.13 1128.11 3387.17 1113.08 3374.09 1093.4C3361.34 1073.52 3352.57 1051.35 3348.25 1028.12C3343.07 998.737 3340.7 968.921 3341.17 939.082V787.602C3341.17 782.991 3340.82 779.075 3341.17 774.818V557C3303.65 563.74 3273.56 579.363 3249.14 604.55C3220.46 634.349 3199.58 676.5 3199.58 727.294V979.524C3199.58 1179.96 3302.59 1281.54 3508.6 1284.26C3578.69 1283.55 3636.75 1271.48 3683.12 1248.43V1284.26C3683.12 1318.31 3682.06 1345.98 3680.29 1367.98C3678.31 1390.56 3674.16 1412.89 3667.9 1434.67C3661.53 1457.38 3652.68 1474.76 3640.64 1487.53C3626.83 1501.47 3609.99 1512.04 3591.44 1518.39C3570.55 1526.2 3545.06 1530.1 3514.98 1530.1H3505.42V1660.29H3513.56C3645.24 1660.29 3735.86 1614.18 3785.42 1521.94C3802.14 1490.48 3812.94 1456.21 3817.28 1420.84C3821.88 1384.65 3824 1335.7 3824 1274.68V727.294Z" fill="url(#paint4_linear)"/>
<path d="M1855.55 1123.98C1867.99 1140.56 1891.09 1149.03 1924.86 1149.03C1936.59 1149.03 1948.32 1148.67 1960.4 1147.62V1271.8C1934.85 1278.42 1908.61 1282.09 1882.21 1282.73C1823.91 1282.73 1778.06 1265.45 1745 1231.23C1711.95 1197.01 1695.24 1147.97 1695.24 1084.82V213.436V204.969V0C1733.63 6.70295 1763.84 22.5784 1788.37 47.979C1821.42 82.1994 1838.13 131.237 1838.13 194.386V1065.77C1840.26 1091.52 1845.95 1110.93 1855.55 1123.98Z" fill="url(#paint5_linear)"/>
<defs>
<linearGradient id="paint0_linear" x1="3824" y1="1660" x2="8.43752e-05" y2="-0.000194368" gradientUnits="userSpaceOnUse">
<stop stop-color="#9723AE"/>
<stop offset="1" stop-color="#3023AE"/>
</linearGradient>
<linearGradient id="paint1_linear" x1="3824" y1="1660" x2="8.43752e-05" y2="-0.000194368" gradientUnits="userSpaceOnUse">
<stop stop-color="#9723AE"/>
<stop offset="1" stop-color="#3023AE"/>
</linearGradient>
<linearGradient id="paint2_linear" x1="3824" y1="1660" x2="8.43752e-05" y2="-0.000194368" gradientUnits="userSpaceOnUse">
<stop stop-color="#9723AE"/>
<stop offset="1" stop-color="#3023AE"/>
</linearGradient>
<linearGradient id="paint3_linear" x1="3824" y1="1660" x2="8.43752e-05" y2="-0.000194368" gradientUnits="userSpaceOnUse">
<stop stop-color="#9723AE"/>
<stop offset="1" stop-color="#3023AE"/>
</linearGradient>
<linearGradient id="paint4_linear" x1="3824" y1="1660" x2="8.43752e-05" y2="-0.000194368" gradientUnits="userSpaceOnUse">
<stop stop-color="#9723AE"/>
<stop offset="1" stop-color="#3023AE"/>
</linearGradient>
<linearGradient id="paint5_linear" x1="3824" y1="1660" x2="8.43752e-05" y2="-0.000194368" gradientUnits="userSpaceOnUse">
<stop stop-color="#9723AE"/>
<stop offset="1" stop-color="#3023AE"/>
</linearGradient>
</defs>
</svg>
