<svg xmlns="http://www.w3.org/2000/svg" viewBox="0 0 1078.9 469.3"><title>Asset 3</title><g id="Layer_2" data-name="Layer 2"><g id="Layer_1-2" data-name="Layer 1"><path d="M250.4,311.9a103.76,103.76,0,0,1-.2-103.8,105.1,105.1,0,0,1,181.2-.1,102.57,102.57,0,0,1,0,103.8,105,105,0,0,1-181,.1Zm25.9-51.5q0,26.7,18.8,46T341,325.7q27,0,45.8-19.6t18.7-46.5q0-26.85-18.8-46.2c-12.5-12.9-27.8-19.3-45.7-19.3q-27.3,0-46,19.7A65.28,65.28,0,0,0,276.3,260.4Z"/><path d="M203.2,219.1A102,102,0,0,0,180.8,186a107.38,107.38,0,0,0-74.4-29.8q-41.55,0-66.4,29.1V67.6a80.16,80.16,0,0,1,.4-8.8V0Q24.35,2.85,14,13.5,1.55,26.4.2,49.2H0V358.1l39.9-.1V334.4c16.4,19.4,38.6,29.1,66.4,29.1a106.22,106.22,0,0,0,41.3-8A103.22,103.22,0,0,0,181,333.7a101.56,101.56,0,0,0,22.2-33A105,105,0,0,0,203.2,219.1Zm-50.4,87.7q-18.75,18.9-46.8,18.9T59.6,306.6C47.4,293.9,41.4,278.3,41.4,260q0-27.75,18.7-46.8c12.4-12.7,27.9-19.1,46.3-19.1s33.9,6.4,46.4,19.2,18.7,28.3,18.7,46.8S165.3,294.2,152.8,306.8Z"/><path d="M880.3,325.7c-9.5,0-16-2.4-19.5-7.1s-5.2-12.6-5.2-23.6V49.3H855q-1.35-22.8-13.8-35.7C834.4,6.5,825.6,2,814.9.1V59.7c.2,2.4.4,5.1.4,8V313.4h.6q1.35,22.8,13.8,35.7c9.3,9.7,22.2,14.6,38.6,14.6a96.47,96.47,0,0,0,22-3.1V325.4C886.9,325.6,883.6,325.7,880.3,325.7Z"/><path d="M740.6,13.6c-9.3,9.7-14,23.5-14,41.5V184.5c-16.8-18.8-38.7-28.2-65.5-28.2a108,108,0,0,0-74.4,29.8,101,101,0,0,0-22.4,33.1,104.2,104.2,0,0,0-8.3,40.9,101.75,101.75,0,0,0,8.2,40.7,100,100,0,0,0,22.2,33,102.66,102.66,0,0,0,33.4,21.8,106.22,106.22,0,0,0,41.3,8q41.7,0,66.3-29.1v23.6h39.9V0C756.4,1.8,747.5,6.3,740.6,13.6ZM707.9,306.5q-18.75,19.2-46.8,19.2-27.6,0-46.4-18.9T596,260q0-27.6,18.7-46.8c12.5-12.7,27.9-19.1,46.4-19.1s34,6.5,46.6,19.3,18.9,28.4,18.9,46.6S720.3,293.7,707.9,306.5Z"/><path d="M1078.6,206.4c-1.4-13.6-5.9-24.4-13.5-32.3-6.8-7.1-15.5-11.6-26.2-13.5v45.8h-.5V266a132.15,132.15,0,0,1-2,25.1,50.92,50.92,0,0,1-7.4,18.4,31.71,31.71,0,0,1-15.6,12.1c-6.3,2.5-14.2,3.8-23.6,3.9-9-.2-16.6-1.5-22.7-3.9a31.54,31.54,0,0,1-15.3-12.1,51.45,51.45,0,0,1-7.3-18.4,132.15,132.15,0,0,1-2-25.1V223.3c0-1.3.1-2.5.2-3.7V158.2c-10.6,1.9-19.3,6.4-26.2,13.5-8.1,8.4-12.7,20-13.7,34.6h-.3v71.1q0,84.75,87.3,85.9c19.8-.2,36.2-3.6,49.3-10.1v10.1c0,9.6-.3,17.4-.8,23.6a99,99,0,0,1-3.5,18.8c-1.8,6.4-4.3,11.3-7.7,14.9a36,36,0,0,1-13.9,8.7q-8.85,3.3-21.6,3.3h-2.7v36.7h2.3q55.8,0,76.8-39a81.85,81.85,0,0,0,9-28.5c1.3-10.2,1.9-24,1.9-41.2V206.3h-.3Z"/><path d="M542.4,325.7c-9.5,0-16-2.4-19.5-7.1-2.7-3.7-4.3-9.2-4.9-16.5V55.1c0-17.9-4.7-31.8-14-41.5C497.1,6.4,488.3,1.9,477.5,0V58.1l.3,2.4v247c0,17.9,4.7,31.8,14,41.5s22.2,14.6,38.6,14.6a96.47,96.47,0,0,0,22-3.1V325.3C549,325.6,545.7,325.7,542.4,325.7Z"/></g></g></svg>