<svg width="32" height="32" viewBox="0 0 32 32" fill="none" xmlns="http://www.w3.org/2000/svg">
<path d="M16.124 30.8922C24.344 30.8922 31.0077 24.2798 31.0077 16.123C31.0077 7.96617 24.344 1.35376 16.124 1.35376C7.9039 1.35376 1.24023 7.96617 1.24023 16.123C1.24023 24.2798 7.9039 30.8922 16.124 30.8922Z" fill="#C4C4C4"/>
<mask id="mask0" mask-type="alpha" maskUnits="userSpaceOnUse" x="1" y="1" width="31" height="30">
<path d="M16.124 30.8925C24.344 30.8925 31.0077 24.2801 31.0077 16.1232C31.0077 7.96641 24.344 1.354 16.124 1.354C7.9039 1.354 1.24023 7.96641 1.24023 16.1232C1.24023 24.2801 7.9039 30.8925 16.124 30.8925Z" fill="#686868"/>
</mask>
<g mask="url(#mask0)">
<path d="M19.3131 17.707C19.8447 17.9751 20.3762 18.1091 20.7749 18.3772C23.2998 19.5837 25.2932 21.5945 26.3563 24.2756C26.8878 25.4821 27.1536 26.6886 27.2865 28.0291C27.2865 28.2973 27.2865 28.4313 27.2865 28.6994C27.2865 29.1016 27.0207 29.3697 26.6221 29.3697C26.2234 29.3697 25.9576 29.1016 25.9576 28.6994C25.9576 26.2864 25.1603 23.8735 23.5656 22.1307C20.642 18.7794 15.7251 17.707 11.7383 19.8518C9.47921 21.0583 7.75164 23.0691 6.95429 25.4821C6.55562 26.5545 6.42273 27.627 6.42273 28.6994C6.42273 29.1016 6.28984 29.3697 5.89117 29.5037C5.4925 29.6378 5.09383 29.3697 4.96094 28.9675V28.8335C4.96094 27.3589 5.22672 25.8843 5.89117 24.4097C6.95429 21.8626 8.81476 19.8518 11.2068 18.6453C11.7383 18.3772 12.4028 18.1091 13.0673 17.841L12.9344 17.707C11.7383 16.9026 11.0739 15.5621 10.8081 14.2215C10.2766 12.4788 10.6752 10.6021 11.8712 9.39558C12.9344 8.05504 14.529 7.38477 16.2566 7.38477C18.5158 7.38477 20.642 8.85936 21.4393 11.0042C22.3696 13.4172 21.5722 16.0983 19.5789 17.707H19.3131ZM16.1237 17.3048C16.9211 17.3048 17.7184 17.0367 18.3829 16.6345C20.3762 15.294 20.9078 12.7469 19.7118 10.7361C19.5789 10.468 19.3131 10.1999 19.1802 10.0659C17.7184 8.4572 15.1935 8.32315 13.4659 9.79775C12.0041 11.0042 11.4726 12.881 12.2699 14.6237C12.9344 16.2324 14.3962 17.3048 16.1237 17.3048Z" fill="#848484"/>
</g>
</svg>
