<svg width="24" height="24" viewBox="0 0 24 24" fill="none" xmlns="http://www.w3.org/2000/svg">
<path d="M8.36461 23.9994C8.00674 24.0025 7.65156 23.9374 7.31812 23.8074C6.22602 23.3754 5.39794 22.1633 5.44835 21.0425C5.47235 20.3225 5.14832 19.5569 4.9035 19.3217C4.65868 19.0865 3.87621 18.7769 3.16334 18.8249C2.05204 18.8969 0.80873 18.1145 0.345488 17.0393C-0.117754 15.964 0.158271 14.5192 0.979145 13.7608C1.49999 13.2808 1.81442 12.5008 1.80962 12.1576C1.80482 11.8144 1.46639 11.0512 0.92874 10.5783C0.083864 9.83914 -0.240165 8.39911 0.189474 7.32149C0.619112 6.24387 1.83362 5.40146 2.95452 5.45186C3.67459 5.47586 4.44026 5.15185 4.68028 4.90705C4.9203 4.66225 5.22033 3.87983 5.17232 3.16702C5.09792 2.051 5.88039 0.81018 6.96049 0.346972C8.04058 -0.116236 9.47831 0.159769 10.2416 0.980583C10.6638 1.42937 11.2256 1.72205 11.8353 1.811C12.1786 1.811 12.9418 1.46779 13.4099 0.930182C14.1611 0.0829675 15.6013 -0.241038 16.6766 0.190969C17.7519 0.622977 18.5967 1.835 18.5463 2.95582C18.5175 3.67583 18.8464 4.44144 19.0936 4.68145C19.3408 4.92145 20.1209 5.22146 20.8289 5.17345C21.9498 5.09905 23.186 5.88147 23.6516 6.95429C24.1172 8.0271 23.8388 9.47193 23.0227 10.2351C22.4971 10.7152 22.1827 11.5 22.1923 11.8384C22.2019 12.1768 22.5355 12.9448 23.0731 13.4128C23.918 14.1496 24.2397 15.5728 23.81 16.6697C23.5844 17.2041 23.2123 17.6638 22.7367 17.9959C22.2611 18.328 21.7012 18.5188 21.1218 18.5465H21.045C20.3249 18.5177 19.5592 18.8465 19.324 19.0913C19.0888 19.3361 18.784 20.1185 18.832 20.8313C18.9064 21.9473 18.1119 23.1834 17.0462 23.6538C15.9805 24.1242 14.5284 23.841 13.7699 23.025C13.2899 22.5042 12.5194 22.1897 12.1714 22.1897C11.8281 22.1897 11.0649 22.533 10.5968 23.0706C10.3095 23.3717 9.96272 23.6099 9.57842 23.7698C9.19413 23.9297 8.78076 24.0079 8.36461 23.9994ZM3.31216 17.4929C4.25064 17.4929 5.29474 17.8481 5.82998 18.3641C6.40604 18.9209 6.81407 20.0945 6.79007 21.0881C6.81079 21.4031 6.91693 21.7065 7.09707 21.9657C7.27722 22.2249 7.52457 22.4301 7.81256 22.5594C8.11292 22.6659 8.43688 22.6873 8.74864 22.6212C9.0604 22.5551 9.34782 22.4042 9.57912 22.1849C10.2344 21.4361 11.3313 20.8625 12.133 20.8481C12.9346 20.8337 14.0531 21.3737 14.73 22.1033C15.114 22.5162 15.9445 22.6602 16.511 22.4178C17.0774 22.1753 17.5382 21.4577 17.4998 20.9033C17.435 19.9145 17.8047 18.7289 18.3615 18.1529C18.9184 17.5769 20.0921 17.1689 21.0906 17.1929H21.1218C21.4386 17.1776 21.7442 17.0707 22.0014 16.885C22.2586 16.6994 22.4564 16.4429 22.5705 16.147C22.6847 15.851 22.7104 15.5283 22.6445 15.218C22.5787 14.9077 22.424 14.6233 22.1995 14.3992C21.4506 13.744 20.8769 12.6472 20.8625 11.8456C20.8481 11.044 21.3882 9.92554 22.1179 9.24873C22.3295 9.00983 22.4712 8.71727 22.5275 8.40313C22.5839 8.08899 22.5526 7.76542 22.4371 7.46789C22.3004 7.17995 22.0869 6.9353 21.8201 6.76084C21.5533 6.58638 21.2436 6.48889 20.925 6.47908C19.9361 6.54388 18.7504 6.17427 18.1743 5.61266C17.5982 5.05105 17.1902 3.87743 17.2142 2.88382C17.1929 2.56835 17.0857 2.26472 16.9042 2.00581C16.7227 1.7469 16.4738 1.54259 16.1845 1.41499C15.8842 1.30846 15.5602 1.28704 15.2484 1.35312C14.9367 1.41919 14.6493 1.57018 14.418 1.7894C13.7603 2.54061 12.6634 3.11902 11.8617 3.11902H11.8353C11.0409 3.11902 9.93676 2.59101 9.26469 1.8686C9.02592 1.65675 8.73333 1.51485 8.41911 1.45854C8.1049 1.40222 7.78123 1.43366 7.48373 1.54939C6.92208 1.7894 6.45644 2.50941 6.49484 3.06382C6.55965 4.05744 6.19002 5.23826 5.63317 5.81427C5.07632 6.39028 3.90261 6.79828 2.90892 6.76228H2.88012C2.56905 6.78977 2.27114 6.90057 2.01772 7.08302C1.76429 7.26547 1.56472 7.51284 1.43999 7.7991C1.33345 8.09943 1.31203 8.42337 1.37811 8.73511C1.44419 9.04685 1.59519 9.33425 1.81442 9.56553C2.56329 10.2207 3.13694 11.3176 3.15134 12.124C3.16574 12.9304 2.62569 14.044 1.90083 14.7208C1.68913 14.9587 1.54729 15.2505 1.49096 15.5639C1.43463 15.8773 1.466 16.2001 1.5816 16.4968C1.82162 17.0585 2.54169 17.5241 3.09614 17.4857C3.16794 17.4923 3.24007 17.4947 3.31216 17.4929ZM12.0009 17.0849C10.7421 17.0858 9.5276 16.6198 8.59244 15.7771C7.65728 14.9345 7.06788 13.7749 6.93825 12.5228C6.80863 11.2708 7.14799 10.0151 7.89069 8.99874C8.63339 7.98238 9.72666 7.27755 10.959 7.02058C12.1914 6.76362 13.4752 6.97278 14.5623 7.6076C15.6493 8.24243 16.4623 9.25782 16.844 10.4573C17.2256 11.6569 17.1488 12.9553 16.6284 14.1015C16.108 15.2477 15.181 16.1602 14.0267 16.6625L13.7651 16.0528L14.0267 16.6625C13.3872 16.9395 12.6979 17.0832 12.0009 17.0849ZM12.0009 8.25511C11.4912 8.25476 10.9869 8.36018 10.52 8.56471C9.67134 8.93498 8.99022 9.60692 8.60851 10.4505C8.2268 11.294 8.17164 12.2491 8.4537 13.131C8.73576 14.0129 9.33499 14.7587 10.1354 15.2242C10.9358 15.6897 11.8804 15.8418 12.7865 15.6509C13.6925 15.46 14.4955 14.9398 15.0401 14.1909C15.5846 13.4421 15.8319 12.5178 15.7341 11.5972C15.6364 10.6765 15.2005 9.82477 14.5109 9.20694C13.8212 8.58912 12.9269 8.2491 12.0009 8.25271V8.25511Z" fill="#848484"/>
</svg>