<svg id="Layer_1" data-name="Layer 1" xmlns="http://www.w3.org/2000/svg" viewBox="0 0 67.04 52.46"><defs><style>.cls-1{fill:#d0186d;}.cls-2{fill:#dca985;}.cls-3{fill:#cc7f50;}.cls-4,.cls-5{fill:none;stroke:#000;stroke-linejoin:round;stroke-width:2px;}.cls-5{stroke-linecap:round;}</style></defs><title>ValueIconography</title><path class="cls-1" d="M48.72,10.13C48.64,5.27,45.28,2,41,2c-5.87.06-6.43,4.9-7.31,7-.13.32-.23.31-.34,0-.78-2.19-1.76-7.29-8.68-7-3.4.16-6.46,3.89-6.43,7.64.08,12,14.93,19.86,14.93,19.86S48.9,20.92,48.72,10.13Z"/><path class="cls-2" d="M49.16,27.51,38,38.65A7.4,7.4,0,0,0,39.9,50.48h0a4.37,4.37,0,0,0,4.57-.4l4.76-3.55,8-7.88,8.2-21.34a2.5,2.5,0,0,0-.58-2.73,1.73,1.73,0,0,0-2.35,0,3.67,3.67,0,0,0-1.13,1.31L53.87,27.56S51.87,24.8,49.16,27.51Z"/><path class="cls-2" d="M47.66,37.19,53.82,31s1.21-1.15.57-2.26"/><path class="cls-3" d="M17.84,27.51,29,38.65A7.4,7.4,0,0,1,27.1,50.48h0a4.37,4.37,0,0,1-4.57-.4l-4.76-3.55-8-7.88L1.54,17.31a2.5,2.5,0,0,1,.58-2.73,1.71,1.71,0,0,1,2.34,0,3.58,3.58,0,0,1,1.13,1.31l7.54,11.71S15.12,24.8,17.84,27.51Z"/><path class="cls-3" d="M19.34,37.19,13.18,31s-1.21-1.15-.57-2.26"/><path class="cls-4" d="M48.72,10.13C48.64,5.27,45.28,2,41,2c-5.87.06-6.43,4.9-7.31,7-.13.32-.23.31-.34,0-.78-2.19-1.76-7.29-8.68-7-3.4.16-6.46,3.89-6.43,7.64.08,12,14.93,19.86,14.93,19.86S48.9,20.92,48.72,10.13Z"/><path class="cls-4" d="M49.16,27.51,38,38.65A7.4,7.4,0,0,0,39.9,50.48h0a4.37,4.37,0,0,0,4.57-.4l4.76-3.55,8-7.88,8.2-21.34a2.5,2.5,0,0,0-.58-2.73,1.73,1.73,0,0,0-2.35,0,3.67,3.67,0,0,0-1.13,1.31L53.87,27.56S51.87,24.8,49.16,27.51Z"/><path class="cls-5" d="M47.66,37.19,53.82,31s1.21-1.15.57-2.26"/><path class="cls-4" d="M17.84,27.51,29,38.65A7.4,7.4,0,0,1,27.1,50.48h0a4.37,4.37,0,0,1-4.57-.4l-4.76-3.55-8-7.88L1.54,17.31a2.5,2.5,0,0,1,.58-2.73,1.71,1.71,0,0,1,2.34,0,3.58,3.58,0,0,1,1.13,1.31l7.54,11.71S15.12,24.8,17.84,27.51Z"/><path class="cls-5" d="M19.34,37.19,13.18,31s-1.21-1.15-.57-2.26"/></svg>