<svg id="Layer_1" data-name="Layer 1" xmlns="http://www.w3.org/2000/svg" viewBox="0 0 67.09 50.93"><defs><style>.cls-1,.cls-2{fill:none;stroke-linejoin:round;stroke-width:2px;}.cls-2{stroke-linecap:round;}</style></defs><title>ValueIconography</title><path class="cls-1" d="M48.65,9.11C48.56,4.25,45.21,1,41,1c-5.87.06-6.44,4.9-7.31,7-.14.32-.23.31-.35,0-.78-2.2-1.75-7.29-8.67-7-3.4.16-6.46,3.9-6.43,7.64.08,12,14.93,19.87,14.93,19.87S48.83,19.9,48.65,9.11Z"/><path class="cls-1" d="M49.09,26.5,37.94,37.63a7.4,7.4,0,0,0,1.88,11.83h0a4.36,4.36,0,0,0,4.58-.39l4.75-3.56,8-7.87,8.2-21.34a2.49,2.49,0,0,0-.58-2.73,1.72,1.72,0,0,0-2.35,0,3.73,3.73,0,0,0-1.13,1.3L53.8,26.55S51.8,23.78,49.09,26.5Z"/><path class="cls-2" d="M47.59,36.17,53.74,30s1.21-1.14.58-2.26"/><path class="cls-1" d="M17.77,26.5,28.92,37.63A7.4,7.4,0,0,1,27,49.46h0a4.34,4.34,0,0,1-4.57-.39L17.7,45.51l-8-7.87L1.47,16.3A2.49,2.49,0,0,1,2,13.57a1.72,1.72,0,0,1,2.35,0,3.63,3.63,0,0,1,1.13,1.3l7.54,11.72S15.05,23.78,17.77,26.5Z"/><path class="cls-2" d="M19.26,36.17,13.11,30s-1.21-1.14-.57-2.26"/></svg>