<svg id="Layer_1" data-name="Layer 1" xmlns="http://www.w3.org/2000/svg" viewBox="0 0 74.41 61.83"><defs><style>.cls-1{fill:none;stroke:#231f20;stroke-linecap:round;stroke-miterlimit:10;stroke-width:2px;}</style></defs><title>SurveyIcons</title><line class="cls-1" x1="49.16" y1="50.59" x2="49.16" y2="56.68"/><line class="cls-1" x1="25.25" y1="56.68" x2="25.25" y2="50.59"/><path class="cls-1" d="M8.94,1H65.48a7.94,7.94,0,0,1,7.94,7.94V44.51a5.34,5.34,0,0,1-5.34,5.34H6.34A5.34,5.34,0,0,1,1,44.51V8.94A7.94,7.94,0,0,1,8.94,1Z"/><path class="cls-1" d="M52.76,60.83H21.66c-1.16,0-2.1-.59-2.1-1.32V58c0-.73.94-1.32,2.1-1.32h31.1c1.15,0,2.09.59,2.09,1.32v1.53C54.85,60.24,53.91,60.83,52.76,60.83Z"/><line class="cls-1" x1="4.69" y1="41.05" x2="69.92" y2="41.05"/><line class="cls-1" x1="4.93" y1="9.91" x2="59.57" y2="9.91"/><line class="cls-1" x1="64.25" y1="9.93" x2="69.81" y2="9.93"/></svg>