<svg id="Layer_1" data-name="Layer 1" xmlns="http://www.w3.org/2000/svg" viewBox="0 0 53.15 42.18"><defs><style>.cls-1{fill:none;stroke-linecap:round;stroke-miterlimit:10;stroke-width:2px;}</style></defs><title>SurveyIcons</title><path class="cls-1" d="M17.8,22.07,11.11,7.91A2.23,2.23,0,0,1,12.3,5l1.22-.52a2.23,2.23,0,0,1,2.93,1.19l6.47,13.41"/><path class="cls-1" d="M22.92,19.06,17.14,5.35a2.23,2.23,0,0,1,1.19-2.92l1.23-.52a2.23,2.23,0,0,1,2.92,1.18l5.75,13.58"/><path class="cls-1" d="M28.11,16.39,24.51,5.6c-.19-1.59,0-2.45,1.18-2.93l1.23-.52a2.23,2.23,0,0,1,2.93,1.19L34.3,19.77"/><path class="cls-1" d="M17.87,22.4l-5.23-8c-1.12-1.18-2-1.55-2.93-1.19l-1.23.52A2.24,2.24,0,0,0,7.3,16.64l4.2,5.94a52,52,0,0,1,5,8.82l1.3,2.91a8.46,8.46,0,0,0,2.88,3.5l1.38,1a8.47,8.47,0,0,0,8.1.9l5.14-3a8.54,8.54,0,0,0,4.88-5.36h0a11.54,11.54,0,0,0,.46-5.9L40,11.2a1.07,1.07,0,0,0-1.42-.59l-2.26,1a3.85,3.85,0,0,0-1.39,2.8c.12,2-.61,8.4-.61,8.4a9.68,9.68,0,0,0-3.91,3.36,5.76,5.76,0,0,0-.62,4.41l.65,2.56"/><path class="cls-1" d="M7,25.78S5.74,30.69,11,33.4"/><path class="cls-1" d="M1.21,25A12.28,12.28,0,0,0,7.56,38.2"/><path class="cls-1" d="M46.19,15s1.22-4.91-4.07-7.62"/><path class="cls-1" d="M52,15.75A12.3,12.3,0,0,0,45.59,2.57"/></svg>