<svg id="Layer_1" data-name="Layer 1" xmlns="http://www.w3.org/2000/svg" viewBox="0 0 54.84 49.13"><defs><style>.cls-1{fill:none;stroke-linecap:round;stroke-miterlimit:10;stroke-width:2px;}</style></defs><title>SurveyIcons</title><path class="cls-1" d="M19.18,3.77A23.57,23.57,0,1,1,6.71,24.56"/><path class="cls-1" d="M7.56,18a1.42,1.42,0,0,0,2.13,0c2.08-2.32,6.47-7.5,6.71-9.84a2.81,2.81,0,0,0-3.63-2.9A7.15,7.15,0,0,0,9,8.52a.29.29,0,0,1-.52,0c-.63-1.15-2.1-3-3.79-3.32A3,3,0,0,0,1,8.41C1,10.51,5.46,15.69,7.56,18Z"/><path class="cls-1" d="M10.63,20.82,9.2,19A.78.78,0,0,0,8,19L6.38,20.9"/><path class="cls-1" d="M42.82,30.24A14.51,14.51,0,0,1,30.1,38a13.77,13.77,0,0,1-12.45-7.35"/><path class="cls-1" d="M26.34,20.13a5.16,5.16,0,0,0-9,.34"/><path class="cls-1" d="M41.72,20.13a5.17,5.17,0,0,0-9,.34"/></svg>