<svg id="Layer_1" data-name="Layer 1" xmlns="http://www.w3.org/2000/svg" viewBox="0 0 70.17 63.63"><defs><style>.cls-1{fill:#fff;}.cls-1,.cls-2{stroke:#231f20;stroke-linecap:round;stroke-miterlimit:10;stroke-width:2px;}.cls-2{fill:none;}</style></defs><title>SurveyIcons</title><rect class="cls-1" x="1" y="35.19" width="11.23" height="26.58" rx="1.85"/><path class="cls-1" d="M12.69,56.36l7.39-5H45.49a8,8,0,0,0,5.22-1.94L68.92,31.23a.86.86,0,0,0,.24-.79,2.11,2.11,0,0,0-1.41-1.7,7.62,7.62,0,0,0-7,.88L49,39.76H34.35"/><path class="cls-2" d="M12.62,39.3l7.09-5.78a8.47,8.47,0,0,1,4-1H44.62a2.29,2.29,0,0,1,2.29,2.3v2.53a2.87,2.87,0,0,1-1.65,2.43"/><path class="cls-1" d="M46.56,16.9l-7.75,7.46a2.13,2.13,0,0,1-3-.06l-10.53-11a2.13,2.13,0,0,1-.6-1.53l.15-6.54a2.53,2.53,0,0,1,2.4-2.49l7.28-.44A2.12,2.12,0,0,1,36.16,3L46.62,13.88A2.13,2.13,0,0,1,46.56,16.9Z"/><circle class="cls-1" cx="29.91" cy="7.74" r="1.8"/></svg>