<svg id="Layer_1" data-name="Layer 1" xmlns="http://www.w3.org/2000/svg" viewBox="0 0 60.68 63.25"><defs><style>.cls-1{fill:#5a8c09;}.cls-2{fill:#78a234;}.cls-3,.cls-4{fill:none;stroke:#000;stroke-width:2px;}.cls-3{stroke-linecap:round;stroke-linejoin:round;}.cls-4{stroke-miterlimit:10;}</style></defs><title>ValueIconography</title><path class="cls-1" d="M40,22.5a18.43,18.43,0,0,1-.91,6,9.35,9.35,0,0,1-17.66,0,18.16,18.16,0,0,1-.91-6C20.47,12,27,5.17,29.34,2.26a1.12,1.12,0,0,1,1.74,0C33.46,5.17,40,12,40,22.5Z"/><path class="cls-2" d="M41.64,25.21a15.32,15.32,0,0,0-5.12,0,7.83,7.83,0,0,0-2.2,14.63,15.19,15.19,0,0,0,4.89,1.5c8.5,1.28,16.48-2.75,19.38-4.45a1.12,1.12,0,0,0,.26-1.73C56.58,32.68,50.13,26.48,41.64,25.21Z"/><path class="cls-2" d="M18.78,25.9a15,15,0,0,1,5.11,0,7.83,7.83,0,0,1,2.2,14.63A15.19,15.19,0,0,1,21.2,42c-8.49,1.28-16.48-2.75-19.38-4.45a1.13,1.13,0,0,1-.26-1.73C3.84,33.37,10.28,27.17,18.78,25.9Z"/><line class="cls-3" x1="30.34" y1="41.73" x2="30.34" y2="62.25"/><path class="cls-4" d="M40,22.49a18.43,18.43,0,0,1-.91,6,9.35,9.35,0,0,1-17.66,0,18.43,18.43,0,0,1-.91-6C20.47,12,27,5.16,29.34,2.25a1.12,1.12,0,0,1,1.74,0C33.47,5.16,40,12,40,22.49Z"/><path class="cls-4" d="M41.64,25.2a15.32,15.32,0,0,0-5.12,0,7.83,7.83,0,0,0-2.19,14.63,15.43,15.43,0,0,0,4.89,1.51c8.49,1.27,16.48-2.76,19.37-4.46a1.11,1.11,0,0,0,.26-1.73C56.58,32.68,50.14,26.47,41.64,25.2Z"/><path class="cls-4" d="M18.78,25.89a15.32,15.32,0,0,1,5.12,0,7.83,7.83,0,0,1,2.19,14.63A15.2,15.2,0,0,1,21.21,42c-8.5,1.28-16.48-2.75-19.38-4.45a1.12,1.12,0,0,1-.26-1.73C3.84,33.36,10.29,27.16,18.78,25.89Z"/></svg>