<svg id="Layer_1" data-name="Layer 1" xmlns="http://www.w3.org/2000/svg" viewBox="0 0 61.25 63.54"><defs><style>.cls-1,.cls-2{fill:none;stroke:#000;stroke-miterlimit:10;stroke-width:2px;}.cls-2{stroke-linecap:round;}</style></defs><title>ValueIconography</title><path class="cls-1" d="M40.52,22.79a18.38,18.38,0,0,1-.91,6,9.35,9.35,0,0,1-17.66,0,18.38,18.38,0,0,1-.91-6c0-10.51,6.49-17.32,8.87-20.24a1.12,1.12,0,0,1,1.74,0C34,5.47,40.52,12.28,40.52,22.79Z"/><path class="cls-1" d="M42.21,25.5a15.23,15.23,0,0,0-5.11,0,7.82,7.82,0,0,0-2.2,14.62,15.18,15.18,0,0,0,4.89,1.51c8.49,1.28,16.48-2.76,19.37-4.45a1.13,1.13,0,0,0,.27-1.74C57.15,33,50.71,26.78,42.21,25.5Z"/><path class="cls-1" d="M19.35,26.19a15.29,15.29,0,0,1,5.12,0,7.82,7.82,0,0,1,2.2,14.62,15.26,15.26,0,0,1-4.89,1.51C13.28,43.6,5.3,39.57,2.4,37.88a1.13,1.13,0,0,1-.26-1.74C4.41,33.67,10.86,27.47,19.35,26.19Z"/><line class="cls-2" x1="30.91" y1="42.02" x2="30.91" y2="62.54"/></svg>