<svg id="Layer_1" data-name="Layer 1" xmlns="http://www.w3.org/2000/svg" viewBox="0 0 56.69 44.44"><defs><style>.cls-1{fill:#eed3c0;}.cls-2{fill:#c33d00;}.cls-3,.cls-4,.cls-8{fill:none;}.cls-3,.cls-4,.cls-5,.cls-6,.cls-8{stroke:#000;stroke-width:2px;}.cls-3,.cls-4,.cls-5{stroke-miterlimit:10;}.cls-4,.cls-8{stroke-linecap:round;}.cls-5,.cls-6{fill:#ba5920;}.cls-6,.cls-8{stroke-linejoin:round;}.cls-7{fill:#e04500;}</style></defs><title>ValueIconography</title><polygon class="cls-1" points="8.62 1.56 10.74 5.67 9.23 9.24 9.3 39.71 12.4 42.8 16.46 43.36 20.47 40.22 21.84 38.34 23.35 37.42 40.76 37.36 40.76 5.54 39.55 2.42 35.35 1.01 8.62 1.56"/><path class="cls-2" d="M54.85,4.46c2.93,3.4-3,8.69-7.87,13.82-5.58,5.91-8.75,7.59-11.17,7.43.14-2.92.59-6.93,6-12.89C46.14,8,51.72.82,54.85,4.46Z"/><path class="cls-3" d="M9.23,9.24V37.3c.06,3.89,2.3,6,7.23,6.06"/><path class="cls-4" d="M40.76,10V5.54C40.76,3,38.34,1,35.35,1h-29"/><line class="cls-4" x1="40.76" y1="37.36" x2="40.76" y2="27.96"/><ellipse class="cls-5" cx="5.94" cy="5.67" rx="4.8" ry="4.67"/><path class="cls-6" d="M44.22,43.36c4.34,0,6-4.47,6-4.47.29-.52-.42-1.45-1.53-1.47H23.35a1.61,1.61,0,0,0-1.51.92h0a8.82,8.82,0,0,1-6.13,5.1Z"/><line class="cls-4" x1="16.47" y1="12.01" x2="34.01" y2="12.01"/><line class="cls-4" x1="16.47" y1="18.29" x2="34.01" y2="18.29"/><line class="cls-4" x1="16.47" y1="24.5" x2="31.01" y2="24.5"/><line class="cls-4" x1="16.47" y1="30.48" x2="28.01" y2="30.48"/><polygon class="cls-7" points="36.15 24.69 53.57 4.86 52.9 3.65 49.02 5.26 44.06 10.08 39.37 15.58 37.22 19.46 36.15 24.69"/><path class="cls-3" d="M54.72,4.75c2.93,3.41-3,8.69-7.88,13.82-5.57,5.91-8.75,7.6-11.17,7.44.15-2.92.59-6.93,6-12.89C46,8.29,51.59,1.11,54.72,4.75Z"/><line class="cls-8" x1="31.58" y1="30.6" x2="54.72" y2="4.75"/></svg>