<svg id="Layer_1" data-name="Layer 1" xmlns="http://www.w3.org/2000/svg" viewBox="0 0 57.95 45.98"><defs><style>.cls-1,.cls-2,.cls-3,.cls-4{fill:none;stroke:#000;stroke-width:2px;}.cls-1,.cls-2{stroke-miterlimit:10;}.cls-2,.cls-4{stroke-linecap:round;}.cls-3,.cls-4{stroke-linejoin:round;}</style></defs><title>ValueIconography</title><path class="cls-1" d="M10.16,10V38.07c.06,3.89,2.3,6,7.23,6.06"/><path class="cls-2" d="M41.69,10.74V6.31c0-2.5-2.42-4.53-5.4-4.53h-29"/><line class="cls-2" x1="41.69" y1="38.13" x2="41.69" y2="28.73"/><ellipse class="cls-1" cx="6.87" cy="6.44" rx="4.8" ry="4.67"/><path class="cls-3" d="M45.15,44.13c4.34,0,6-4.48,6-4.48.28-.51-.43-1.44-1.54-1.46H24.28a1.61,1.61,0,0,0-1.51.92h0a8.82,8.82,0,0,1-6.13,5.1Z"/><line class="cls-2" x1="17.4" y1="12.78" x2="34.94" y2="12.78"/><line class="cls-2" x1="17.4" y1="19.06" x2="34.94" y2="19.06"/><line class="cls-2" x1="17.4" y1="25.27" x2="31.94" y2="25.27"/><line class="cls-2" x1="17.4" y1="31.25" x2="28.94" y2="31.25"/><line class="cls-4" x1="32.52" y1="31.37" x2="55.65" y2="5.52"/><path class="cls-4" d="M55.65,5.52c2.93,3.4-3,8.69-7.87,13.82C42.2,25.25,39,26.94,36.6,26.78c.15-2.92.59-6.93,6-12.89C46.93,9.06,52.52,1.88,55.65,5.52Z"/></svg>