<svg id="Layer_1" data-name="Layer 1" xmlns="http://www.w3.org/2000/svg" viewBox="0 0 63.79 64.54"><defs><style>.cls-1{fill:#ba1b65;}.cls-2{fill:#dc86ae;}.cls-3{fill:#cb4f8a;}.cls-4{fill:none;stroke:#000;stroke-linecap:round;stroke-miterlimit:10;stroke-width:2px;}</style></defs><title>ValueIconography</title><path class="cls-1" d="M54.11,48.34c4.47,0,8.09,3.19,8.09,7.13h0c0,3.94-3.62,7.13-8.09,7.13H9.68c-4.47,0-8.09-3.19-8.09-7.13h0c0-3.94,3.62-7.13,8.09-7.13"/><path class="cls-2" d="M39.4,18.78s9.67,3.06,10.43,13.47,1,13.74,1,13.74c.33,5.94-4.1,6.23-4.1,6.23l-9.48,1.36a2.76,2.76,0,0,1-3-2.58,2.93,2.93,0,0,1,2.44-3.27l4.06-.67c4.24-.85,3.82-1.77,3.54-5.6L43.18,30.52"/><path class="cls-2" d="M20.61,30.52,19.52,41.46c-.41,3.88-.41,5.19,3.54,5.6l4.06.67A2.93,2.93,0,0,1,29.56,51a2.76,2.76,0,0,1-3,2.58l-9.48-1.36S12.63,51.93,13,46c0,0,.25-3.33,1-13.74S24.39,18.78,24.39,18.78"/><path class="cls-3" d="M16.21,25.35l.5,0a4.39,4.39,0,0,1,3.89,5.08h0L19.29,44.93,29,48.39h6.25l9.27-2.57-1.33-15.3L43,29.38a4.38,4.38,0,0,1,3.32-5.14l.62-.15L39.4,18.78l-.48-.25A14.35,14.35,0,0,0,25,18.82h0Z"/><ellipse class="cls-2" cx="31.9" cy="10.08" rx="7.53" ry="8.32"/><path class="cls-4" d="M54.11,48.34c4.47,0,8.09,3.19,8.09,7.13h0c0,3.94-3.62,7.13-8.09,7.13H9.68c-4.47,0-8.09-3.19-8.09-7.13h0c0-3.94,3.62-7.13,8.09-7.13"/><ellipse class="cls-4" cx="31.9" cy="10.08" rx="7.53" ry="8.32"/><path class="cls-4" d="M43.18,30.52l1.09,10.94c.28,3.83.7,4.75-3.54,5.6l-4.06.67A2.93,2.93,0,0,0,34.23,51a2.76,2.76,0,0,0,3,2.58l9.48-1.36s4.43-.29,4.1-6.23c0,0-.25-3.33-1-13.74S39.4,18.78,39.4,18.78"/><path class="cls-4" d="M20.61,30.52,19.52,41.46c-.41,3.88-.41,5.19,3.54,5.6l4.06.67A2.93,2.93,0,0,1,29.56,51a2.76,2.76,0,0,1-3,2.58l-9.48-1.36S12.63,51.93,13,46c0,0,.25-3.33,1-13.74S24.39,18.78,24.39,18.78"/><line class="cls-4" x1="16.71" y1="25.4" x2="19.07" y2="26.67"/><line class="cls-4" x1="46.27" y1="24.24" x2="43.44" y2="26.61"/></svg>