<svg id="Layer_1" data-name="Layer 1" xmlns="http://www.w3.org/2000/svg" viewBox="0 0 63.55 62.84"><defs><style>.cls-1{fill:none;stroke:#000;stroke-linecap:round;stroke-miterlimit:10;stroke-width:2px;}</style></defs><title>ValueIconography</title><path class="cls-1" d="M54,47.58c4.47,0,8.1,3.19,8.1,7.13h0c0,3.94-3.63,7.13-8.1,7.13H9.61c-4.47,0-8.09-3.19-8.09-7.13h0c0-3.94,3.62-7.13,8.09-7.13"/><ellipse class="cls-1" cx="31.83" cy="9.32" rx="7.53" ry="8.32"/><path class="cls-1" d="M43.11,29.76l1.1,10.94c.28,3.83.69,4.74-3.55,5.6L36.6,47a2.93,2.93,0,0,0-2.44,3.27,2.74,2.74,0,0,0,3,2.57l9.48-1.35s4.43-.29,4.11-6.23c0,0-.25-3.33-1-13.74S39.34,18,39.34,18"/><path class="cls-1" d="M20.55,29.76,19.45,40.7C19,44.58,19,45.89,23,46.3l4.06.67a2.93,2.93,0,0,1,2.43,3.27,2.74,2.74,0,0,1-3,2.57L17,51.46s-4.43-.29-4.1-6.23c0,0,.25-3.33,1-13.74S24.32,18,24.32,18"/></svg>